<svg xmlns="http://www.w3.org/2000/svg" xmlns:xlink="http://www.w3.org/1999/xlink" width="160" zoomAndPan="magnify" viewBox="0 0 120 37.5" height="50" preserveAspectRatio="xMidYMid meet" version="1.0"><defs><g/><clipPath id="b9d2008520"><path d="M 1.515625 2.480469 L 33.5625 2.480469 L 33.5625 34.527344 L 1.515625 34.527344 Z M 1.515625 2.480469 " clip-rule="nonzero"/></clipPath><clipPath id="b48c49159c"><path d="M 17.539062 2.480469 C 8.6875 2.480469 1.515625 9.652344 1.515625 18.503906 C 1.515625 27.351562 8.6875 34.527344 17.539062 34.527344 C 26.390625 34.527344 33.5625 27.351562 33.5625 18.503906 C 33.5625 9.652344 26.390625 2.480469 17.539062 2.480469 Z M 17.539062 2.480469 " clip-rule="nonzero"/></clipPath><clipPath id="2e4ef457b4"><path d="M 2.347656 3.398438 L 32.695312 3.398438 L 32.695312 33.742188 L 2.347656 33.742188 Z M 2.347656 3.398438 " clip-rule="nonzero"/></clipPath></defs><g clip-path="url(#b9d2008520)"><g clip-path="url(#b48c49159c)"><path fill="#ef3027" d="M 1.515625 2.480469 L 33.5625 2.480469 L 33.5625 34.527344 L 1.515625 34.527344 Z M 1.515625 2.480469 " fill-opacity="1" fill-rule="nonzero"/></g></g><g clip-path="url(#2e4ef457b4)"><path fill="#000000" d="M 17.492188 3.398438 C 25.859375 3.398438 32.636719 10.175781 32.636719 18.542969 C 32.636719 26.90625 25.859375 33.6875 17.492188 33.6875 C 9.128906 33.6875 2.347656 26.90625 2.347656 18.542969 C 2.347656 10.175781 9.128906 3.398438 17.492188 3.398438 " fill-opacity="1" fill-rule="nonzero"/></g><path fill="#ffffff" d="M 17.492188 4.597656 C 25.195312 4.597656 31.4375 10.839844 31.4375 18.542969 C 31.4375 26.242188 25.195312 32.484375 17.492188 32.484375 C 9.792969 32.484375 3.550781 26.242188 3.550781 18.542969 C 3.550781 10.839844 9.792969 4.597656 17.492188 4.597656 " fill-opacity="1" fill-rule="nonzero"/><path fill="#ffffff" d="M 19.832031 12.851562 L 19.984375 12.9375 C 20.410156 13.085938 20.726562 13.339844 20.871094 13.710938 C 21.304688 13.761719 21.628906 13.976562 21.792969 14.367188 C 22.492188 14.492188 22.898438 15.0625 23.164062 15.496094 C 24.304688 15.914062 25.234375 17.507812 25.765625 19.265625 C 27.699219 20.089844 29.046875 21.261719 29.046875 22.671875 C 29.046875 23.632812 28.414062 24.480469 27.425781 25.175781 L 24.800781 26.441406 C 22.785156 27.125 20.1875 27.535156 17.363281 27.535156 C 14.539062 27.535156 11.945312 27.125 9.925781 26.441406 L 7.203125 25.105469 C 6.273438 24.425781 5.683594 23.601562 5.683594 22.671875 C 5.683594 21.445312 6.699219 20.402344 8.207031 19.621094 C 9.136719 16.804688 10.472656 15.382812 11.738281 15.160156 C 12.132812 14.722656 12.550781 14.480469 13.09375 14.304688 C 13.265625 13.988281 13.476562 13.699219 13.777344 13.539062 C 13.878906 13.285156 14.066406 13.078125 14.277344 12.90625 L 14.257812 12.765625 C 13.691406 12.226562 13.527344 11.074219 13.792969 10.308594 C 13.140625 10.339844 12.6875 10.019531 12.464844 9.59375 C 11.609375 8.046875 12.851562 6.117188 15.160156 5.570312 C 15.832031 5.53125 16.546875 5.507812 17.304688 5.507812 C 17.679688 5.507812 18.042969 5.511719 18.394531 5.523438 C 18.4375 5.546875 18.476562 5.574219 18.519531 5.605469 C 20.941406 5.917969 21.824219 7.238281 20.210938 9.074219 L 20.085938 9.785156 L 20.0625 9.890625 C 20.757812 9.203125 20.652344 12.523438 19.832031 12.851562 " fill-opacity="1" fill-rule="nonzero"/><path fill="#ffffff" d="M 3.929688 18.542969 C 3.929688 11.050781 10.003906 4.980469 17.492188 4.980469 C 24.984375 4.980469 31.054688 11.050781 31.054688 18.542969 C 31.054688 26.03125 24.984375 32.105469 17.492188 32.105469 C 10.003906 32.105469 3.929688 26.03125 3.929688 18.542969 " fill-opacity="1" fill-rule="nonzero"/><path fill="#ef3027" d="M 11.429688 6.40625 L 11.429688 30.675781 C 6.984375 28.449219 3.929688 23.851562 3.929688 18.542969 C 3.929688 13.230469 6.984375 8.632812 11.429688 6.40625 " fill-opacity="1" fill-rule="nonzero"/><path fill="#2a9840" d="M 23.203125 30.847656 L 23.203125 6.238281 C 27.839844 8.390625 31.054688 13.089844 31.054688 18.542969 C 31.054688 23.992188 27.839844 28.691406 23.203125 30.847656 " fill-opacity="1" fill-rule="nonzero"/><path fill="#ffffff" d="M 20.039062 12.863281 C 20.453125 13.011719 20.773438 13.261719 20.933594 13.628906 C 21.351562 13.691406 21.679688 13.910156 21.855469 14.289062 C 22.550781 14.433594 22.960938 15 23.226562 15.421875 C 24.382812 15.871094 25.308594 17.472656 25.839844 19.199219 C 27.753906 20.023438 29.136719 21.210938 29.136719 22.671875 C 29.136719 23.265625 28.898438 23.820312 28.503906 24.3125 L 29.410156 24.675781 L 29.417969 24.925781 C 29.417969 24.957031 29.417969 24.984375 29.417969 25.011719 C 29.246094 25.324219 29.0625 25.632812 28.867188 25.929688 C 28.578125 26.085938 28.207031 26.140625 27.84375 26.125 L 27.851562 27.101562 L 27.824219 27.171875 C 27.757812 27.328125 27.679688 27.480469 27.570312 27.621094 C 27.53125 27.667969 27.488281 27.71875 27.441406 27.761719 C 27.238281 27.949219 26.964844 28.074219 26.582031 28.0625 C 26.246094 28.257812 25.804688 28.332031 25.410156 28.261719 C 25.246094 28.375 25.082031 28.4375 24.914062 28.464844 C 24.8125 28.484375 24.714844 28.488281 24.617188 28.488281 C 24.570312 28.484375 24.527344 28.484375 24.480469 28.480469 L 24.371094 30.234375 C 22.351562 31.421875 20.003906 32.105469 17.492188 32.105469 C 14.496094 32.105469 11.726562 31.132812 9.484375 29.488281 L 9.460938 28.527344 C 9.140625 28.503906 8.832031 28.394531 8.546875 28.132812 C 7.824219 28.078125 7.445312 27.742188 7.1875 27.109375 L 7.152344 27.03125 L 7.195312 26.128906 C 6.761719 26.136719 6.320312 26.042969 6.027344 25.789062 C 5.921875 25.621094 5.820312 25.449219 5.71875 25.277344 C 5.695312 25.171875 5.679688 25.054688 5.683594 24.925781 L 5.691406 24.675781 L 6.320312 24.425781 C 5.863281 23.902344 5.59375 23.3125 5.59375 22.671875 C 5.59375 21.402344 6.636719 20.34375 8.136719 19.558594 C 9.054688 16.78125 10.390625 15.328125 11.691406 15.078125 C 12.085938 14.648438 12.503906 14.40625 13.03125 14.230469 C 13.199219 13.929688 13.40625 13.644531 13.707031 13.476562 C 13.8125 13.234375 13.988281 13.035156 14.183594 12.871094 C 13.5 12.65625 13.4375 11.234375 13.703125 10.398438 C 13.070312 10.398438 12.613281 10.070312 12.386719 9.636719 C 11.402344 7.847656 13.085938 5.640625 15.875 5.363281 C 16.394531 5.3125 16.871094 5.21875 17.296875 5.207031 C 17.722656 5.191406 18.164062 5.246094 18.550781 5.519531 C 20.992188 5.84375 21.945312 7.21875 20.296875 9.117188 L 20.171875 9.800781 L 20.148438 9.925781 C 20.640625 10.566406 20.773438 12.378906 20.039062 12.863281 Z M 27.570312 27.621094 C 27.527344 27.667969 27.484375 27.714844 27.441406 27.761719 C 27.488281 27.71875 27.53125 27.667969 27.570312 27.621094 " fill-opacity="1" fill-rule="nonzero"/><path fill="#000000" d="M 9.769531 25.296875 L 24.304688 25.296875 L 23.972656 30.457031 C 22.050781 31.507812 19.839844 32.105469 17.492188 32.105469 C 14.667969 32.105469 12.042969 31.238281 9.871094 29.761719 L 9.769531 25.296875 " fill-opacity="1" fill-rule="nonzero"/><path fill="#000000" d="M 25.945312 21.664062 C 25.691406 18.957031 24.421875 16.167969 22.972656 15.738281 C 22.675781 15.246094 22.28125 14.667969 21.578125 14.632812 C 21.46875 14.199219 21.15625 13.984375 20.648438 13.988281 C 20.578125 13.617188 20.316406 13.355469 19.863281 13.203125 L 19.464844 12.972656 L 19.542969 12.597656 C 20.054688 12.667969 20.625 9.382812 19.722656 10.121094 L 19.796875 9.730469 L 19.941406 8.945312 C 21.421875 7.300781 20.785156 6.164062 18.402344 5.882812 C 17.785156 5.378906 16.9375 5.636719 15.910156 5.742188 C 13.21875 6.011719 11.933594 8.042969 12.722656 9.460938 C 12.921875 9.84375 13.386719 10.148438 14.128906 9.964844 L 14.175781 10.164062 C 13.664062 9.816406 13.933594 12.660156 14.515625 12.46875 L 14.585938 13.035156 C 14.300781 13.242188 14.085938 13.472656 14.011719 13.75 C 13.710938 13.863281 13.5 14.148438 13.292969 14.546875 C 12.703125 14.722656 12.289062 14.957031 11.886719 15.433594 C 10.566406 15.59375 8.941406 17.328125 8.011719 21.433594 L 25.945312 21.664062 " fill-opacity="1" fill-rule="evenodd"/><path fill="#ffffff" d="M 10.773438 19.835938 C 10.75 19.003906 10.78125 16.050781 11.855469 15.917969 C 12.566406 16.40625 14.082031 16.765625 16.402344 17.003906 L 18.003906 16.875 C 18.820312 16.976562 20.335938 16.648438 22.550781 15.890625 C 23.304688 16.554688 23.925781 17.984375 24.410156 20.179688 L 10.773438 19.835938 " fill-opacity="1" fill-rule="evenodd"/><path fill="#000000" d="M 16.5 16.757812 C 15.625 17.15625 15.1875 17.925781 15.195312 19.066406 C 15.746094 18.96875 16.449219 18.339844 17.304688 17.1875 C 17.574219 18.183594 18.59375 18.855469 20.367188 19.203125 C 20.027344 18.152344 19.417969 17.347656 18.546875 16.78125 L 16.894531 16.703125 L 16.5 16.757812 " fill-opacity="1" fill-rule="evenodd"/><path fill="#ffffff" d="M 16.523438 17.046875 C 15.921875 17.203125 15.535156 17.800781 15.371094 18.84375 C 15.808594 18.699219 16.398438 18.179688 17.132812 17.285156 L 16.222656 17.808594 L 16.851562 16.964844 L 16.523438 17.046875 " fill-opacity="1" fill-rule="evenodd"/><path fill="#ffffff" d="M 17.945312 16.75 C 18.808594 17.222656 19.53125 17.941406 20.117188 18.90625 C 19.132812 18.917969 18.195312 18.34375 17.304688 17.1875 C 17.503906 17.1875 17.960938 17.5 18.667969 18.125 C 17.992188 17.4375 17.707031 17.023438 17.820312 16.886719 L 17.945312 16.75 " fill-opacity="1" fill-rule="evenodd"/><path fill="#000000" d="M 5.972656 22.671875 C 5.972656 20.144531 11.074219 18.097656 17.363281 18.097656 C 23.65625 18.097656 28.753906 20.144531 28.753906 22.671875 C 28.753906 25.195312 23.65625 27.246094 17.363281 27.246094 C 11.074219 27.246094 5.972656 25.195312 5.972656 22.671875 " fill-opacity="1" fill-rule="nonzero"/><path fill="#ffffff" d="M 19.394531 11.167969 C 19.40625 10.640625 19.246094 10.277344 19.25 9.917969 C 17.714844 9.4375 16.367188 9.414062 15.238281 9.878906 C 14.996094 10.21875 14.800781 10.851562 14.78125 11.34375 C 14.699219 11.351562 14.621094 11.097656 14.523438 10.535156 C 14.011719 9.902344 14.132812 12.453125 14.761719 12.199219 C 14.761719 13.542969 15.601562 14 16.09375 14.402344 C 16.09375 14.402344 16.46875 14.710938 17.304688 14.695312 C 18.011719 14.660156 18.210938 14.523438 19.003906 13.429688 C 19.261719 12.761719 19.371094 12.253906 19.394531 11.167969 " fill-opacity="1" fill-rule="evenodd"/><path fill="#ffffff" d="M 19.308594 11.457031 L 19.777344 10.542969 C 20.046875 10.375 19.898438 12.039062 19.515625 12.28125 C 19.214844 12.472656 19.226562 12.320312 19.214844 12.121094 L 19.308594 11.457031 " fill-opacity="1" fill-rule="evenodd"/><path fill="#ffffff" d="M 19.703125 8.550781 C 21.089844 7.640625 20.527344 6.417969 18.285156 6.160156 C 16.6875 5.265625 12.734375 6.59375 12.828125 8.949219 C 12.917969 9.519531 13.320312 9.761719 14.035156 9.675781 C 14.398438 9.609375 14.695312 9.445312 14.917969 9.179688 C 14.253906 9.285156 13.792969 9.242188 13.539062 9.058594 C 14.917969 8.980469 16.40625 8.285156 18.003906 6.980469 C 17.632812 7.582031 17.257812 7.953125 16.886719 8.097656 C 17.898438 7.945312 18.835938 8.097656 19.703125 8.550781 " fill-opacity="1" fill-rule="evenodd"/><path fill="#ffffff" d="M 19.671875 8.828125 C 18.8125 8.347656 17.820312 8.078125 16.839844 8.25 C 16.378906 8.671875 15.789062 9.089844 15.074219 9.507812 C 16.578125 9.128906 18.136719 9.164062 19.496094 9.613281 L 19.671875 8.828125 " fill-opacity="1" fill-rule="evenodd"/><path fill="#ffffff" d="M 14.765625 13.347656 C 14.496094 13.394531 14.285156 13.605469 14.269531 13.992188 C 15.171875 15.089844 15.691406 16.015625 16.328125 16.238281 C 15.773438 16.296875 14.929688 15.511719 14.082031 14.164062 C 13.9375 14.082031 13.757812 14.21875 13.539062 14.574219 C 13.535156 15.445312 15.175781 16.191406 16.359375 16.625 C 15.183594 16.402344 13.429688 15.492188 13.234375 14.921875 C 12.683594 15.0625 12.476562 15.144531 12.296875 15.523438 C 13.289062 16.191406 14.65625 16.601562 16.386719 16.75 C 16.234375 16.175781 16.359375 15.730469 16.757812 15.414062 C 16.296875 15.222656 15.5 14.722656 14.765625 13.347656 " fill-opacity="1" fill-rule="evenodd"/><path fill="#ffffff" d="M 19.855469 13.554688 C 19.257812 14.554688 18.605469 15.207031 17.902344 15.507812 C 18.628906 15.992188 18.871094 16.429688 18.320312 16.824219 C 19.796875 16.742188 22.308594 15.164062 21.816406 15.050781 C 21.367188 15.457031 19.890625 16.273438 19.457031 16.324219 C 19.835938 16.15625 21.257812 15.261719 21.65625 14.800781 C 21.503906 14.636719 21.285156 14.535156 21 14.5 C 20.558594 15.191406 19.097656 16.453125 18.476562 16.484375 C 19.855469 15.46875 21.035156 13.921875 20.359375 13.792969 C 19.769531 14.628906 18.8125 15.910156 18.457031 16.050781 C 19.382812 14.796875 20.113281 13.636719 19.855469 13.554688 " fill-opacity="1" fill-rule="evenodd"/><path fill="#000000" d="M 16.777344 10.625 L 16.300781 10.410156 C 16 10.414062 15.84375 10.496094 15.570312 10.546875 C 15.609375 10.664062 15.828125 10.714844 16.222656 10.699219 L 15.707031 10.839844 C 15.96875 10.980469 16.230469 11.097656 16.542969 11.003906 C 16.664062 11.023438 16.753906 11.195312 16.765625 11.210938 C 16.867188 10.992188 16.871094 10.796875 16.777344 10.625 " fill-opacity="1" fill-rule="evenodd"/><path fill="#000000" d="M 17.402344 10.855469 C 17.410156 10.738281 17.480469 10.628906 17.609375 10.527344 L 18.261719 10.410156 C 18.441406 10.472656 18.691406 10.527344 18.84375 10.699219 C 18.511719 10.65625 18.292969 10.65625 18.191406 10.699219 L 18.691406 10.890625 C 18.285156 10.988281 17.992188 11.109375 17.761719 10.972656 C 17.660156 11.132812 17.601562 11.402344 17.667969 11.824219 C 18.320312 12.191406 17.789062 12.527344 17.332031 12.539062 C 17.65625 12.398438 17.65625 12.074219 17.46875 11.835938 L 17.402344 10.855469 " fill-opacity="1" fill-rule="evenodd"/><path fill="#000000" d="M 17.335938 12.535156 C 17.097656 12.523438 16.949219 12.464844 16.886719 12.359375 C 16.480469 12.4375 16.421875 12.339844 16.511719 12.113281 L 16.222656 12.347656 L 15.976562 12.59375 C 16.109375 12.671875 16.285156 12.628906 16.5 12.464844 C 16.71875 12.4375 16.964844 12.714844 17.335938 12.535156 " fill-opacity="1" fill-rule="evenodd"/><path fill="#000000" d="M 17.820312 12.128906 C 18.164062 12.410156 18.550781 12.390625 18.785156 12.476562 C 18.652344 12.707031 18.519531 12.839844 18.390625 12.871094 C 18.449219 12.546875 18.019531 12.507812 17.820312 12.128906 " fill-opacity="1" fill-rule="evenodd"/><path fill="#000000" d="M 18.109375 12.933594 L 17.765625 12.980469 L 17.402344 12.921875 L 17.183594 13 L 16.917969 12.929688 L 16.472656 13.03125 L 16.183594 12.96875 C 16.179688 13.066406 16.273438 13.117188 16.460938 13.121094 C 16.871094 13.171875 17.3125 13.171875 17.789062 13.121094 C 17.96875 13.085938 18.074219 13.023438 18.109375 12.933594 " fill-opacity="1" fill-rule="evenodd"/><path fill="#000000" d="M 17.628906 13.394531 C 17.273438 13.460938 16.976562 13.460938 16.738281 13.394531 L 16.492188 13.632812 C 16.855469 13.632812 17.320312 13.632812 17.886719 13.632812 L 17.628906 13.394531 " fill-opacity="1" fill-rule="evenodd"/><path fill="#ffffff" d="M 17.363281 18.773438 C 23.925781 18.773438 28.175781 20.949219 28.175781 22.671875 C 28.175781 24.394531 23.925781 26.566406 17.363281 26.566406 C 10.804688 26.566406 6.554688 24.394531 6.554688 22.671875 C 6.554688 20.949219 10.804688 18.773438 17.363281 18.773438 " fill-opacity="1" fill-rule="nonzero"/><path fill="#000000" d="M 20 26.730469 L 19.863281 25.4375 L 19.226562 24.476562 L 18.933594 23.273438 L 17.902344 22.238281 L 18.46875 23.183594 L 18.640625 24.203125 L 19.070312 24.632812 L 19.398438 25.5625 L 19.570312 26.699219 L 20 26.730469 " fill-opacity="1" fill-rule="evenodd"/><path fill="#000000" d="M 25.800781 25.015625 L 25.339844 24.269531 L 23.050781 23.304688 L 19.171875 21.945312 L 22.1875 22.738281 L 23.910156 23.304688 L 25.148438 23.738281 L 26.507812 25.097656 L 25.800781 25.015625 " fill-opacity="1" fill-rule="evenodd"/><path fill="#000000" d="M 22.753906 24.40625 C 22.945312 25.199219 21.191406 25.4375 21.222656 24.304688 C 21.832031 24.855469 22.34375 24.890625 22.753906 24.40625 " fill-opacity="1" fill-rule="evenodd"/><path fill="#000000" d="M 17.246094 23.464844 C 17.605469 24.371094 15.925781 24.285156 15.9375 23.464844 C 16.53125 23.875 16.96875 23.875 17.246094 23.464844 " fill-opacity="1" fill-rule="evenodd"/><path fill="#000000" d="M 17.074219 21.789062 L 15.609375 22.839844 L 14.953125 23.941406 L 12.957031 25.132812 L 12.046875 26.03125 L 11.289062 26.164062 L 12.21875 25.234375 L 13.027344 24.667969 L 14.078125 23.941406 L 15.472656 22.546875 L 16.179688 22.015625 L 17.074219 21.789062 " fill-opacity="1" fill-rule="evenodd"/><path fill="#000000" d="M 16.28125 21.117188 L 12.0625 22.34375 L 11.132812 23.273438 L 9.496094 23.375 L 7.378906 24.441406 L 7.015625 24.078125 L 8.070312 23.769531 L 8.964844 23.273438 L 9.632812 23.273438 L 10.53125 23.113281 L 11.324219 22.546875 L 11.890625 21.980469 L 12.820312 21.808594 L 13.492188 21.808594 L 14.75 21.34375 L 16.28125 21.117188 " fill-opacity="1" fill-rule="evenodd"/><path fill="#000000" d="M 14.644531 20.878906 L 11.664062 21.117188 L 9.894531 20.878906 L 8.601562 21.1875 L 6.980469 21.085938 L 7.378906 20.945312 L 8.671875 20.945312 L 9.929688 20.585938 L 11.390625 20.824219 L 12.59375 20.824219 L 14.644531 20.878906 " fill-opacity="1" fill-rule="evenodd"/><path fill="#000000" d="M 16.539062 20.257812 L 14.953125 19.585938 L 13.710938 19.015625 L 13.285156 18.757812 L 13.851562 18.621094 L 14.320312 19.292969 L 15.214844 19.464844 L 15.9375 19.757812 L 16.539062 20.257812 " fill-opacity="1" fill-rule="evenodd"/><path fill="#000000" d="M 18.730469 18.804688 L 18.261719 19.859375 L 17.710938 20.6875 L 17.710938 21.050781 L 18.535156 19.859375 L 18.863281 19.359375 L 19.429688 18.847656 L 19.691406 18.585938 L 19.136719 18.464844 L 18.730469 18.804688 " fill-opacity="1" fill-rule="evenodd"/><path fill="#000000" d="M 22.480469 19.265625 L 20.691406 20.257812 L 19.726562 20.652344 L 18.933594 21.117188 L 18.261719 21.566406 L 20.292969 20.6875 L 21.222656 20.449219 L 22.152344 19.824219 L 23.128906 19.410156 L 24.082031 19.410156 L 23.015625 19.085938 L 22.480469 19.265625 " fill-opacity="1" fill-rule="evenodd"/><path fill="#000000" d="M 27.503906 21.542969 L 24.21875 21.480469 L 22.050781 21.613281 L 20.894531 21.753906 L 19.796875 21.753906 L 22.6875 21.753906 L 23.945312 21.636719 L 24.683594 21.648438 L 25.941406 21.664062 L 27.199219 21.789062 L 28.265625 21.910156 L 27.800781 21.289062 L 27.503906 21.542969 " fill-opacity="1" fill-rule="evenodd"/><path fill="#000000" d="M 26.511719 22.128906 C 26.917969 22.949219 26.078125 23.441406 25.304688 22.582031 C 26.058594 22.757812 26.460938 22.609375 26.511719 22.128906 " fill-opacity="1" fill-rule="evenodd"/><path fill="#000000" d="M 14.183594 22.914062 C 13.777344 24.148438 11.4375 24 11.890625 23.113281 C 12.691406 23.558594 13.457031 23.488281 14.183594 22.914062 " fill-opacity="1" fill-rule="evenodd"/><path fill="#000000" d="M 8.207031 21.925781 C 7.238281 22.847656 7.75 23.140625 9.738281 22.808594 C 8.277344 22.75 7.765625 22.457031 8.207031 21.925781 " fill-opacity="1" fill-rule="evenodd"/><path fill="#000000" d="M 14.683594 19.996094 C 13.546875 20.28125 13.65625 20.570312 15.007812 20.859375 C 14.179688 20.507812 14.070312 20.21875 14.683594 19.996094 " fill-opacity="1" fill-rule="evenodd"/><path fill="#000000" d="M 28.042969 22.019531 C 28.050781 22.070312 28.054688 22.121094 28.054688 22.167969 C 28.054688 23.890625 23.804688 26.066406 17.242188 26.066406 C 10.683594 26.066406 6.433594 23.890625 6.433594 22.167969 C 6.433594 22.121094 6.4375 22.070312 6.445312 22.019531 C 6.679688 23.714844 10.871094 25.769531 17.242188 25.769531 C 23.617188 25.769531 27.808594 23.714844 28.042969 22.019531 " fill-opacity="1" fill-rule="nonzero"/><path fill="#000000" d="M 14.378906 21.652344 L 13.933594 22.15625 L 14.90625 22.234375 L 14.511719 21.949219 L 14.378906 21.652344 " fill-opacity="1" fill-rule="evenodd"/><path fill="#000000" d="M 11.109375 23.667969 L 11.109375 24.140625 L 11.632812 24.011719 L 11.316406 23.875 L 11.109375 23.667969 " fill-opacity="1" fill-rule="evenodd"/><path fill="#000000" d="M 9.832031 23.65625 L 9.4375 24.238281 L 10.367188 24.339844 L 9.902344 24.09375 L 9.832031 23.65625 " fill-opacity="1" fill-rule="evenodd"/><path fill="#000000" d="M 16.609375 22.597656 L 16.746094 22.945312 L 17.359375 22.785156 L 16.996094 22.617188 L 16.894531 22.320312 L 16.609375 22.597656 " fill-opacity="1" fill-rule="evenodd"/><path fill="#000000" d="M 15.414062 24.300781 L 15.945312 24.519531 L 15.738281 24.902344 L 15.597656 24.585938 L 14.996094 24.585938 L 15.414062 24.300781 " fill-opacity="1" fill-rule="evenodd"/><path fill="#000000" d="M 18.566406 24.742188 L 18.308594 25.1875 L 17.320312 24.664062 L 17.945312 24.804688 L 18.308594 24.4375 L 18.566406 24.742188 " fill-opacity="1" fill-rule="evenodd"/><path fill="#000000" d="M 20.933594 22.882812 L 20.46875 23.0625 L 19.941406 22.746094 L 20.40625 22.804688 L 20.871094 22.804688 L 20.933594 22.882812 " fill-opacity="1" fill-rule="evenodd"/><path fill="#000000" d="M 19.359375 19.886719 L 19.03125 20.09375 L 19.257812 20.320312 Z M 19.359375 19.886719 " fill-opacity="1" fill-rule="evenodd"/><path fill="#000000" d="M 17.035156 20.640625 L 16.34375 20.5 L 16.410156 20.796875 L 16.648438 20.71875 L 17.035156 20.640625 " fill-opacity="1" fill-rule="evenodd"/><path fill="#000000" d="M 17.410156 21.460938 L 16.996094 21.042969 L 16.527344 21.203125 L 16.953125 21.332031 L 16.996094 21.550781 L 17.410156 21.460938 " fill-opacity="1" fill-rule="evenodd"/><path fill="#000000" d="M 11.578125 20.324219 L 11.070312 20.074219 L 10.664062 20.152344 L 11.128906 20.273438 L 11.128906 20.5 L 11.414062 20.398438 L 11.78125 20.519531 L 11.578125 20.324219 " fill-opacity="1" fill-rule="evenodd"/><path fill="#000000" d="M 9.652344 21.527344 L 9.414062 21.769531 L 9.167969 21.769531 L 9.476562 21.992188 L 9.65625 21.816406 L 10.078125 21.816406 L 9.8125 21.667969 L 9.652344 21.527344 " fill-opacity="1" fill-rule="evenodd"/><path fill="#000000" d="M 23.722656 20.292969 C 24.867188 20.507812 24.429688 21.355469 23.117188 21.25 C 23.671875 20.878906 24.214844 20.730469 23.722656 20.292969 " fill-opacity="1" fill-rule="evenodd"/><path fill="#000000" d="M 23.621094 21.964844 C 24.902344 22.5 24.710938 22.851562 23.046875 23.019531 C 23.980469 22.738281 24.171875 22.382812 23.621094 21.964844 " fill-opacity="1" fill-rule="evenodd"/><path fill="#000000" d="M 20.351562 23.523438 C 20.652344 24.421875 19.125 24.484375 19.023438 23.636719 C 19.6875 23.980469 20.132812 23.941406 20.351562 23.523438 " fill-opacity="1" fill-rule="evenodd"/><path fill="#000000" d="M 17.949219 19.632812 C 18.300781 18.980469 17.933594 18.882812 16.851562 19.335938 C 17.660156 19.160156 18.027344 19.261719 17.949219 19.632812 " fill-opacity="1" fill-rule="evenodd"/><path fill="#000000" d="M 24.464844 23.5 C 25.019531 24.082031 24.679688 24.363281 23.441406 24.339844 C 24.238281 24.199219 24.578125 23.917969 24.464844 23.5 " fill-opacity="1" fill-rule="evenodd"/><path fill="#ffffff" d="M 16.957031 15.464844 C 16.285156 16.171875 16.324219 16.664062 17.074219 16.949219 C 16.824219 16.738281 16.753906 16.527344 16.855469 16.316406 L 17.558594 16.664062 C 17.195312 16.300781 17.011719 16.113281 17.007812 16.109375 L 17.597656 16.109375 C 17.546875 15.792969 17.332031 15.578125 16.957031 15.464844 " fill-opacity="1" fill-rule="evenodd"/><path fill="#ffffff" d="M 11.21875 16.128906 C 10.117188 17.066406 9.367188 18.21875 8.96875 19.578125 L 10.261719 18.972656 C 10.179688 18.449219 10.5 17.503906 11.21875 16.128906 " fill-opacity="1" fill-rule="evenodd"/><path fill="#ffffff" d="M 15.695312 14.332031 C 16.171875 14.703125 16.652344 14.910156 17.132812 14.949219 L 17.132812 15.261719 C 16.519531 15.101562 16.039062 14.789062 15.695312 14.332031 " fill-opacity="1" fill-rule="evenodd"/><path fill="#000000" d="M 20.980469 20.757812 C 22.261719 21.292969 22.070312 21.644531 20.40625 21.8125 C 21.339844 21.53125 21.535156 21.175781 20.980469 20.757812 " fill-opacity="1" fill-rule="evenodd"/><path fill="#000000" d="M 22.617188 19.582031 C 23.898438 20.117188 23.707031 20.472656 22.042969 20.640625 C 22.976562 20.355469 23.167969 20.003906 22.617188 19.582031 " fill-opacity="1" fill-rule="evenodd"/><path fill="#000000" d="M 25.53125 20.652344 C 26.8125 21.1875 26.621094 21.539062 24.957031 21.707031 C 25.894531 21.421875 26.085938 21.070312 25.53125 20.652344 " fill-opacity="1" fill-rule="evenodd"/><path fill="#000000" d="M 12.734375 19.589844 C 11.59375 19.875 11.703125 20.164062 13.058594 20.453125 C 12.226562 20.101562 12.117188 19.816406 12.734375 19.589844 " fill-opacity="1" fill-rule="evenodd"/><path fill="#000000" d="M 11.753906 21.3125 C 10.617188 21.597656 10.726562 21.886719 12.078125 22.175781 C 11.25 21.824219 11.140625 21.539062 11.753906 21.3125 " fill-opacity="1" fill-rule="evenodd"/><path fill="#000000" d="M 7.652344 24.578125 L 7.535156 26.96875 C 7.757812 27.511719 8.046875 27.746094 8.714844 27.761719 C 9.429688 28.554688 10.332031 27.9375 11.875 27.730469 C 11.136719 26.769531 9.730469 25.71875 7.652344 24.578125 " fill-opacity="1" fill-rule="evenodd"/><path fill="#ffffff" d="M 8.050781 25.304688 L 8.039062 27.03125 C 8.15625 27.242188 8.476562 27.390625 8.6875 27.28125 L 8.65625 25.621094 C 8.515625 25.042969 8.3125 24.9375 8.050781 25.304688 " fill-opacity="1" fill-rule="evenodd"/><path fill="#ffffff" d="M 8.878906 25.714844 L 8.867188 27.4375 C 8.980469 27.652344 9.300781 27.796875 9.511719 27.691406 L 9.484375 26.027344 C 9.34375 25.449219 9.140625 25.34375 8.878906 25.714844 " fill-opacity="1" fill-rule="evenodd"/><path fill="#ffffff" d="M 9.703125 25.984375 L 9.878906 27.53125 C 10.007812 27.710938 10.316406 27.804688 10.496094 27.683594 L 10.285156 26.199219 C 10.09375 25.695312 9.898438 25.621094 9.703125 25.984375 " fill-opacity="1" fill-rule="evenodd"/><path fill="#ffffff" d="M 10.632812 26.40625 L 10.78125 27.710938 C 10.890625 27.859375 11.148438 27.941406 11.300781 27.839844 L 11.125 26.585938 C 10.960938 26.164062 10.796875 26.101562 10.632812 26.40625 " fill-opacity="1" fill-rule="evenodd"/><path fill="#000000" d="M 7.355469 24.417969 L 6.0625 24.9375 C 6.046875 25.660156 6.8125 25.890625 7.753906 25.675781 L 7.753906 24.863281 L 7.355469 24.417969 " fill-opacity="1" fill-rule="evenodd"/><path fill="#ffffff" d="M 7.257812 24.785156 L 6.253906 25.003906 C 6.390625 25.371094 6.804688 25.511719 7.492188 25.433594 L 7.492188 25.160156 L 7.257812 24.785156 " fill-opacity="1" fill-rule="evenodd"/><path fill="#000000" d="M 27.449219 24.578125 L 27.472656 27.027344 C 27.308594 27.429688 27.0625 27.738281 26.484375 27.675781 C 26.183594 27.894531 25.695312 27.972656 25.320312 27.847656 C 24.988281 28.148438 24.699219 28.117188 24.40625 28.089844 C 23.910156 28.046875 23.46875 27.917969 23.226562 27.730469 C 23.492188 25.671875 25.371094 25.71875 27.449219 24.578125 " fill-opacity="1" fill-rule="evenodd"/><path fill="#ffffff" d="M 27.046875 25.304688 L 27.0625 27.03125 C 26.945312 27.242188 26.625 27.390625 26.414062 27.28125 L 26.445312 25.621094 C 26.585938 25.042969 26.789062 24.9375 27.046875 25.304688 " fill-opacity="1" fill-rule="evenodd"/><path fill="#ffffff" d="M 26.222656 25.714844 L 26.234375 27.4375 C 26.121094 27.652344 25.800781 27.796875 25.589844 27.691406 L 25.617188 26.027344 C 25.757812 25.449219 25.960938 25.34375 26.222656 25.714844 " fill-opacity="1" fill-rule="evenodd"/><path fill="#ffffff" d="M 25.398438 25.984375 L 25.222656 27.53125 C 25.09375 27.710938 24.785156 27.804688 24.605469 27.683594 L 24.816406 26.199219 C 25.007812 25.695312 25.203125 25.621094 25.398438 25.984375 " fill-opacity="1" fill-rule="evenodd"/><path fill="#ffffff" d="M 24.46875 26.40625 L 24.320312 27.710938 C 24.210938 27.859375 23.953125 27.941406 23.800781 27.839844 L 23.976562 26.585938 C 24.140625 26.164062 24.304688 26.101562 24.46875 26.40625 " fill-opacity="1" fill-rule="evenodd"/><path fill="#000000" d="M 27.746094 24.417969 L 29.039062 24.9375 C 29.054688 25.660156 28.289062 25.890625 27.347656 25.675781 L 27.347656 24.863281 L 27.746094 24.417969 " fill-opacity="1" fill-rule="evenodd"/><path fill="#ffffff" d="M 27.84375 24.785156 L 28.847656 25.003906 C 28.710938 25.371094 28.296875 25.511719 27.609375 25.433594 L 27.609375 25.160156 L 27.84375 24.785156 " fill-opacity="1" fill-rule="evenodd"/><path fill="#ffffff" d="M 12.125 27.039062 L 12.125 27.960938 L 18.597656 27.960938 Z M 12.125 27.039062 " fill-opacity="1" fill-rule="evenodd"/><g fill="#ffffff" fill-opacity="1"><g transform="translate(34.49716, 24.556175)"><g><path d="M 6.652344 -7.699219 C 6.5 -8.15625 6.144531 -8.464844 5.609375 -8.617188 C 5.351562 -8.667969 5.097656 -8.667969 4.867188 -8.589844 C 4.613281 -8.515625 4.410156 -8.386719 4.257812 -8.234375 C 4.207031 -8.691406 3.925781 -9 3.46875 -9.152344 C 3.058594 -9.253906 2.703125 -9.175781 2.445312 -8.921875 C 2.242188 -8.71875 2.140625 -8.488281 2.191406 -8.234375 C 2.21875 -7.980469 2.371094 -7.800781 2.675781 -7.722656 C 2.90625 -7.621094 3.109375 -7.671875 3.289062 -7.824219 C 3.441406 -7.980469 3.492188 -8.183594 3.441406 -8.464844 C 3.695312 -8.183594 3.746094 -7.929688 3.644531 -7.699219 C 3.519531 -7.445312 3.363281 -7.265625 3.160156 -7.164062 C 3.035156 -7.113281 2.929688 -7.035156 2.878906 -6.984375 C 2.828125 -6.910156 2.777344 -6.855469 2.753906 -6.804688 C 2.703125 -6.730469 2.652344 -6.679688 2.652344 -6.628906 L 1.402344 -2.117188 C 1.351562 -1.988281 1.273438 -1.859375 1.148438 -1.707031 C 0.996094 -1.554688 0.789062 -1.453125 0.511719 -1.402344 C 0.382812 -1.351562 0.28125 -1.273438 0.203125 -1.121094 C 0.101562 -0.96875 0.0507812 -0.816406 0.0273438 -0.664062 C -0.0273438 -0.511719 -0.0273438 -0.355469 -0.0273438 -0.230469 C -0.0273438 -0.078125 0.0273438 -0.0273438 0.128906 -0.0273438 L 4.230469 -0.0273438 C 4.308594 -0.0273438 4.382812 -0.078125 4.460938 -0.179688 C 4.539062 -0.28125 4.589844 -0.40625 4.640625 -0.5625 C 4.691406 -0.714844 4.691406 -0.839844 4.691406 -0.96875 C 4.691406 -1.097656 4.640625 -1.199219 4.539062 -1.25 C 4.28125 -1.351562 4.15625 -1.480469 4.105469 -1.632812 C 4.054688 -1.785156 4.054688 -1.886719 4.054688 -1.988281 C 4.15625 -2.34375 4.257812 -2.726562 4.359375 -3.109375 C 4.460938 -3.492188 4.539062 -3.847656 4.640625 -4.179688 C 4.742188 -4.488281 4.816406 -4.765625 4.867188 -4.972656 C 4.921875 -5.175781 4.972656 -5.277344 4.972656 -5.300781 C 5.023438 -5.558594 5.023438 -5.761719 4.945312 -5.886719 C 4.84375 -6.015625 4.792969 -6.117188 4.742188 -6.195312 C 4.539062 -6.449219 4.460938 -6.753906 4.511719 -7.113281 C 4.5625 -7.46875 4.765625 -7.699219 5.175781 -7.800781 C 4.921875 -7.496094 4.84375 -7.214844 4.945312 -6.933594 C 5.046875 -6.628906 5.25 -6.449219 5.609375 -6.398438 C 5.8125 -6.347656 5.992188 -6.371094 6.144531 -6.449219 C 6.296875 -6.5 6.398438 -6.601562 6.5 -6.730469 C 6.601562 -6.855469 6.652344 -7.011719 6.679688 -7.1875 C 6.703125 -7.339844 6.703125 -7.519531 6.652344 -7.699219 Z M 3.875 -6.730469 C 3.824219 -6.679688 3.824219 -6.601562 3.847656 -6.449219 L 3.644531 -6.347656 C 3.671875 -6.398438 3.722656 -6.5 3.796875 -6.601562 C 3.824219 -6.652344 3.847656 -6.679688 3.875 -6.730469 Z M 3.035156 -5.507812 L 3.058594 -5.761719 L 3.847656 -6.246094 L 3.925781 -6.015625 Z M 2.984375 -4.972656 L 3.007812 -5.25 L 4.003906 -5.835938 C 4.003906 -5.734375 4.054688 -5.683594 4.128906 -5.632812 Z M 2.703125 -1.632812 L 2.601562 -1.375 L 2.625 -1.582031 Z M 3.007812 -2.292969 L 2.828125 -1.9375 L 2.652344 -1.808594 L 2.675781 -2.117188 Z M 3.289062 -2.957031 L 3.136719 -2.601562 L 2.703125 -2.34375 L 2.726562 -2.625 Z M 3.59375 -3.621094 L 3.414062 -3.261719 L 2.753906 -2.878906 L 2.777344 -3.160156 Z M 3.875 -4.28125 L 3.722656 -3.925781 L 2.804688 -3.390625 L 2.828125 -3.695312 Z M 4.179688 -4.945312 L 4.003906 -4.5625 L 2.855469 -3.925781 L 2.90625 -4.207031 Z M 4.359375 -5.378906 L 4.308594 -5.226562 L 2.929688 -4.4375 L 2.957031 -4.742188 L 4.257812 -5.480469 C 4.257812 -5.429688 4.308594 -5.378906 4.359375 -5.378906 Z M 11.34375 -9.585938 L 9.636719 -15.882812 C 9.636719 -15.957031 9.636719 -16.085938 9.6875 -16.238281 C 9.738281 -16.390625 9.867188 -16.519531 10.121094 -16.621094 C 10.222656 -16.671875 10.273438 -16.75 10.273438 -16.875 C 10.273438 -17.003906 10.273438 -17.128906 10.222656 -17.285156 C 10.171875 -17.4375 10.121094 -17.5625 10.042969 -17.664062 C 9.96875 -17.769531 9.890625 -17.84375 9.8125 -17.84375 L 4.972656 -17.84375 C 4.867188 -17.84375 4.792969 -17.769531 4.714844 -17.664062 C 4.640625 -17.5625 4.589844 -17.4375 4.539062 -17.285156 C 4.488281 -17.128906 4.488281 -17.003906 4.488281 -16.875 C 4.488281 -16.75 4.5625 -16.671875 4.664062 -16.621094 C 4.894531 -16.519531 5.023438 -16.390625 5.074219 -16.238281 C 5.125 -16.085938 5.148438 -15.957031 5.148438 -15.882812 L 3.441406 -9.585938 C 3.644531 -9.535156 3.824219 -9.457031 4.027344 -9.328125 C 4.207031 -9.203125 4.332031 -9.050781 4.4375 -8.871094 C 4.765625 -9.023438 5.097656 -9.101562 5.457031 -9.074219 C 5.8125 -9.050781 6.117188 -8.921875 6.425781 -8.691406 C 6.550781 -8.71875 6.628906 -8.742188 6.679688 -8.742188 L 8.03125 -8.742188 C 8.132812 -8.742188 8.234375 -8.71875 8.335938 -8.667969 C 8.640625 -8.871094 8.949219 -9.023438 9.304688 -9.074219 C 9.660156 -9.125 9.992188 -9.050781 10.351562 -8.871094 C 10.453125 -9.023438 10.578125 -9.175781 10.78125 -9.328125 C 10.960938 -9.457031 11.140625 -9.535156 11.34375 -9.585938 Z M 6.398438 -15.601562 L 5.582031 -10.65625 L 4.765625 -9.609375 L 4.613281 -10.9375 Z M 8.03125 -9.738281 L 6.679688 -9.738281 C 6.5 -9.738281 6.347656 -9.789062 6.195312 -9.890625 L 7.394531 -14.300781 L 8.566406 -9.941406 C 8.386719 -9.8125 8.207031 -9.738281 8.03125 -9.738281 Z M 10.171875 -10.9375 L 10.019531 -9.609375 L 9.226562 -10.65625 L 8.386719 -15.601562 Z M 14.277344 -1.402344 C 13.96875 -1.453125 13.765625 -1.554688 13.636719 -1.707031 C 13.511719 -1.859375 13.433594 -1.988281 13.382812 -2.117188 L 12.160156 -6.628906 C 12.132812 -6.679688 12.109375 -6.730469 12.058594 -6.804688 C 12.007812 -6.855469 11.957031 -6.910156 11.878906 -6.984375 C 11.804688 -7.035156 11.726562 -7.113281 11.625 -7.164062 C 11.421875 -7.265625 11.242188 -7.445312 11.140625 -7.699219 C 11.011719 -7.929688 11.089844 -8.183594 11.34375 -8.464844 C 11.265625 -8.183594 11.320312 -7.980469 11.496094 -7.824219 C 11.675781 -7.671875 11.878906 -7.621094 12.132812 -7.722656 C 12.414062 -7.800781 12.566406 -7.980469 12.59375 -8.234375 C 12.617188 -8.488281 12.542969 -8.71875 12.339844 -8.921875 C 12.058594 -9.175781 11.726562 -9.253906 11.320312 -9.152344 C 10.859375 -9 10.605469 -8.691406 10.554688 -8.234375 C 10.351562 -8.386719 10.144531 -8.515625 9.917969 -8.589844 C 9.660156 -8.667969 9.433594 -8.667969 9.203125 -8.617188 C 8.949219 -8.539062 8.71875 -8.4375 8.539062 -8.285156 C 8.335938 -8.132812 8.207031 -7.929688 8.132812 -7.699219 C 8.082031 -7.519531 8.054688 -7.339844 8.082031 -7.1875 C 8.105469 -7.011719 8.15625 -6.855469 8.257812 -6.730469 C 8.363281 -6.601562 8.488281 -6.5 8.640625 -6.449219 C 8.792969 -6.371094 8.972656 -6.347656 9.175781 -6.398438 C 9.507812 -6.449219 9.738281 -6.628906 9.839844 -6.933594 C 9.941406 -7.214844 9.867188 -7.496094 9.609375 -7.800781 C 9.992188 -7.699219 10.222656 -7.46875 10.273438 -7.113281 C 10.324219 -6.753906 10.246094 -6.449219 10.042969 -6.195312 C 9.992188 -6.117188 9.941406 -6.015625 9.839844 -5.886719 C 9.738281 -5.761719 9.738281 -5.558594 9.8125 -5.300781 C 9.8125 -5.277344 9.839844 -5.175781 9.890625 -4.972656 C 9.941406 -4.765625 10.019531 -4.488281 10.121094 -4.179688 C 10.222656 -3.847656 10.324219 -3.492188 10.425781 -3.109375 C 10.527344 -2.726562 10.628906 -2.34375 10.730469 -1.988281 C 10.730469 -1.886719 10.730469 -1.785156 10.679688 -1.632812 C 10.628906 -1.480469 10.476562 -1.351562 10.246094 -1.25 C 10.144531 -1.199219 10.070312 -1.097656 10.070312 -0.96875 C 10.070312 -0.839844 10.070312 -0.714844 10.121094 -0.5625 C 10.171875 -0.40625 10.222656 -0.28125 10.296875 -0.179688 C 10.375 -0.078125 10.453125 -0.0273438 10.554688 -0.0273438 L 14.65625 -0.0273438 C 14.734375 -0.0273438 14.785156 -0.078125 14.8125 -0.230469 C 14.8125 -0.355469 14.8125 -0.511719 14.761719 -0.664062 C 14.707031 -0.816406 14.65625 -0.96875 14.582031 -1.121094 C 14.480469 -1.273438 14.378906 -1.351562 14.277344 -1.402344 Z M 11.140625 -6.347656 L 10.960938 -6.449219 C 10.960938 -6.601562 10.9375 -6.679688 10.910156 -6.730469 C 10.910156 -6.679688 10.9375 -6.652344 10.988281 -6.601562 C 11.011719 -6.550781 11.039062 -6.527344 11.0625 -6.476562 C 11.0625 -6.425781 11.089844 -6.398438 11.140625 -6.347656 Z M 10.859375 -6.015625 L 10.9375 -6.246094 C 11.242188 -6.042969 11.421875 -5.941406 11.523438 -5.886719 C 11.625 -5.835938 11.675781 -5.785156 11.726562 -5.761719 L 11.75 -5.507812 Z M 10.78125 -5.835938 L 11.777344 -5.25 L 11.804688 -4.972656 L 10.679688 -5.632812 Z M 10.476562 -5.226562 L 10.425781 -5.378906 C 10.453125 -5.378906 10.503906 -5.429688 10.554688 -5.480469 L 11.828125 -4.742188 L 11.878906 -4.4375 Z M 10.78125 -4.5625 L 10.628906 -4.945312 L 11.90625 -4.207031 L 11.929688 -3.925781 Z M 11.0625 -3.925781 L 10.910156 -4.28125 L 11.957031 -3.695312 L 11.980469 -3.390625 Z M 11.371094 -3.261719 L 11.214844 -3.621094 L 12.007812 -3.160156 L 12.03125 -2.878906 Z M 11.648438 -2.601562 L 11.496094 -2.957031 L 12.058594 -2.625 L 12.082031 -2.34375 Z M 11.957031 -1.9375 L 11.777344 -2.292969 L 12.109375 -2.117188 L 12.160156 -1.808594 Z M 12.183594 -1.375 L 12.082031 -1.632812 L 12.160156 -1.582031 Z M 12.183594 -1.375 "/></g></g></g><g fill="#ffffff" fill-opacity="1"><g transform="translate(48.746444, 24.556175)"><g><path d="M 16.46875 -1.503906 C 16.1875 -1.632812 16.007812 -1.785156 15.933594 -1.9375 C 15.832031 -2.089844 15.78125 -2.21875 15.753906 -2.320312 L 15.753906 -5.507812 C 15.753906 -6.117188 15.753906 -6.652344 15.753906 -7.164062 C 15.753906 -7.648438 15.726562 -8.105469 15.675781 -8.539062 C 15.625 -8.972656 15.5 -9.382812 15.320312 -9.789062 C 15.117188 -10.171875 14.835938 -10.554688 14.453125 -10.960938 C 14.148438 -11.242188 13.765625 -11.472656 13.308594 -11.625 C 12.847656 -11.777344 12.390625 -11.828125 11.878906 -11.777344 C 11.371094 -11.726562 10.886719 -11.574219 10.402344 -11.320312 C 9.917969 -11.0625 9.507812 -10.65625 9.152344 -10.144531 C 9.050781 -10.273438 8.921875 -10.402344 8.820312 -10.554688 C 8.71875 -10.679688 8.589844 -10.808594 8.464844 -10.960938 C 8.15625 -11.214844 7.824219 -11.445312 7.417969 -11.597656 C 7.011719 -11.75 6.601562 -11.804688 6.144531 -11.804688 C 5.683594 -11.804688 5.25 -11.699219 4.816406 -11.523438 C 4.382812 -11.320312 4.003906 -11.039062 3.644531 -10.679688 L 3.644531 -11.292969 C 3.644531 -11.394531 3.621094 -11.472656 3.59375 -11.546875 C 3.519531 -11.699219 3.390625 -11.804688 3.210938 -11.804688 L 0.355469 -11.804688 C 0.253906 -11.804688 0.203125 -11.726562 0.152344 -11.597656 C 0.101562 -11.445312 0.078125 -11.292969 0.078125 -11.113281 C 0.078125 -10.9375 0.078125 -10.78125 0.128906 -10.628906 C 0.179688 -10.476562 0.253906 -10.375 0.355469 -10.324219 C 0.664062 -10.171875 0.839844 -9.992188 0.917969 -9.789062 C 0.996094 -9.585938 1.046875 -9.457031 1.070312 -9.382812 L 1.070312 -2.445312 C 1.046875 -2.34375 0.996094 -2.21875 0.917969 -2.039062 C 0.839844 -1.835938 0.664062 -1.65625 0.355469 -1.503906 C 0.253906 -1.453125 0.179688 -1.324219 0.128906 -1.171875 C 0.078125 -1.019531 0.078125 -0.839844 0.078125 -0.664062 C 0.078125 -0.484375 0.101562 -0.332031 0.152344 -0.203125 C 0.203125 -0.0507812 0.253906 0 0.355469 0 L 4.332031 0 C 4.410156 0 4.488281 -0.0507812 4.539062 -0.203125 C 4.589844 -0.332031 4.613281 -0.484375 4.613281 -0.664062 C 4.613281 -0.839844 4.589844 -1.019531 4.539062 -1.171875 C 4.488281 -1.324219 4.4375 -1.453125 4.332031 -1.503906 C 4.027344 -1.65625 3.824219 -1.835938 3.746094 -2.039062 C 3.671875 -2.21875 3.644531 -2.34375 3.644531 -2.445312 L 3.644531 -8.105469 C 3.796875 -8.742188 4.054688 -9.203125 4.359375 -9.484375 C 4.664062 -9.738281 4.996094 -9.890625 5.328125 -9.941406 C 5.660156 -9.96875 5.964844 -9.917969 6.246094 -9.761719 C 6.527344 -9.609375 6.703125 -9.457031 6.804688 -9.304688 C 6.910156 -9.074219 6.984375 -8.820312 7.035156 -8.515625 C 7.085938 -8.207031 7.113281 -7.878906 7.136719 -7.546875 C 7.136719 -7.1875 7.136719 -6.855469 7.136719 -6.5 C 7.136719 -6.144531 7.136719 -5.785156 7.136719 -5.480469 L 7.136719 -2.421875 C 7.136719 -2.320312 7.085938 -2.191406 7.011719 -2.015625 C 6.933594 -1.808594 6.753906 -1.65625 6.476562 -1.503906 C 6.371094 -1.453125 6.296875 -1.324219 6.246094 -1.171875 C 6.195312 -1.019531 6.167969 -0.839844 6.167969 -0.664062 C 6.167969 -0.484375 6.195312 -0.332031 6.246094 -0.203125 C 6.296875 -0.0507812 6.371094 0 6.476562 0 L 10.425781 0 C 10.527344 0 10.605469 -0.0507812 10.65625 -0.203125 C 10.707031 -0.332031 10.730469 -0.484375 10.730469 -0.664062 C 10.730469 -0.839844 10.707031 -1.019531 10.65625 -1.171875 C 10.605469 -1.324219 10.527344 -1.453125 10.425781 -1.503906 C 10.171875 -1.632812 10.019531 -1.785156 9.941406 -1.9375 C 9.839844 -2.089844 9.789062 -2.21875 9.761719 -2.320312 L 9.761719 -5.507812 C 9.761719 -5.863281 9.761719 -6.195312 9.761719 -6.527344 C 9.761719 -6.855469 9.789062 -7.1875 9.789062 -7.496094 C 9.839844 -8.308594 10.019531 -8.898438 10.324219 -9.253906 C 10.605469 -9.609375 10.910156 -9.8125 11.265625 -9.890625 C 11.597656 -9.941406 11.90625 -9.917969 12.210938 -9.789062 C 12.515625 -9.636719 12.71875 -9.484375 12.824219 -9.304688 C 12.925781 -9.074219 13 -8.820312 13.050781 -8.515625 C 13.101562 -8.207031 13.128906 -7.878906 13.128906 -7.546875 C 13.128906 -7.1875 13.128906 -6.855469 13.128906 -6.5 C 13.128906 -6.144531 13.128906 -5.785156 13.128906 -5.480469 L 13.128906 -2.421875 C 13.128906 -2.320312 13.078125 -2.191406 13 -2.015625 C 12.898438 -1.808594 12.71875 -1.65625 12.441406 -1.503906 C 12.339844 -1.453125 12.261719 -1.324219 12.210938 -1.171875 C 12.160156 -1.019531 12.160156 -0.839844 12.160156 -0.664062 C 12.160156 -0.484375 12.183594 -0.332031 12.234375 -0.203125 C 12.285156 -0.0507812 12.339844 0 12.441406 0 L 16.46875 0 C 16.519531 0 16.59375 -0.0507812 16.644531 -0.203125 C 16.695312 -0.332031 16.722656 -0.484375 16.722656 -0.664062 C 16.722656 -0.839844 16.695312 -1.019531 16.671875 -1.171875 C 16.621094 -1.324219 16.570312 -1.453125 16.46875 -1.503906 Z M 16.46875 -1.503906 "/></g></g></g><g fill="#ffffff" fill-opacity="1"><g transform="translate(64.882043, 24.556175)"><g><path d="M 5.457031 -11.804688 C 4.691406 -11.804688 4.003906 -11.648438 3.339844 -11.34375 C 2.675781 -11.039062 2.089844 -10.605469 1.605469 -10.070312 C 1.097656 -9.535156 0.714844 -8.921875 0.433594 -8.207031 C 0.128906 -7.496094 0 -6.730469 0 -5.914062 C 0 -5.097656 0.128906 -4.308594 0.433594 -3.59375 C 0.714844 -2.878906 1.097656 -2.242188 1.605469 -1.707031 C 2.089844 -1.171875 2.675781 -0.765625 3.339844 -0.457031 C 4.003906 -0.152344 4.691406 0 5.457031 0 C 6.21875 0 6.933594 -0.152344 7.597656 -0.457031 C 8.257812 -0.765625 8.820312 -1.171875 9.328125 -1.707031 C 9.8125 -2.242188 10.195312 -2.878906 10.503906 -3.59375 C 10.78125 -4.308594 10.9375 -5.097656 10.9375 -5.914062 C 10.9375 -6.730469 10.78125 -7.496094 10.503906 -8.207031 C 10.195312 -8.921875 9.8125 -9.535156 9.328125 -10.070312 C 8.820312 -10.605469 8.257812 -11.039062 7.597656 -11.34375 C 6.933594 -11.648438 6.21875 -11.804688 5.457031 -11.804688 Z M 5.457031 -1.402344 C 5.097656 -1.402344 4.765625 -1.503906 4.460938 -1.757812 C 4.15625 -1.988281 3.898438 -2.320312 3.671875 -2.726562 C 3.441406 -3.136719 3.261719 -3.59375 3.136719 -4.15625 C 3.007812 -4.691406 2.957031 -5.277344 2.957031 -5.914062 C 2.957031 -6.527344 3.007812 -7.085938 3.136719 -7.648438 C 3.261719 -8.183594 3.441406 -8.667969 3.671875 -9.074219 C 3.898438 -9.484375 4.15625 -9.789062 4.460938 -10.042969 C 4.765625 -10.273438 5.097656 -10.402344 5.457031 -10.402344 C 5.785156 -10.402344 6.117188 -10.273438 6.425781 -10.042969 C 6.730469 -9.789062 6.984375 -9.484375 7.214844 -9.074219 C 7.445312 -8.667969 7.621094 -8.183594 7.773438 -7.648438 C 7.902344 -7.085938 7.980469 -6.527344 7.980469 -5.914062 C 7.980469 -5.277344 7.902344 -4.691406 7.773438 -4.15625 C 7.621094 -3.59375 7.445312 -3.136719 7.214844 -2.726562 C 6.984375 -2.320312 6.730469 -1.988281 6.425781 -1.757812 C 6.117188 -1.503906 5.785156 -1.402344 5.457031 -1.402344 Z M 5.457031 -1.402344 "/></g></g></g><g fill="#ffffff" fill-opacity="1"><g transform="translate(75.256737, 24.556175)"><g><path d="M 9.433594 -10.9375 C 9.074219 -11.191406 8.667969 -11.421875 8.207031 -11.574219 C 7.75 -11.726562 7.238281 -11.804688 6.730469 -11.804688 C 6.195312 -11.804688 5.660156 -11.726562 5.125 -11.574219 C 4.589844 -11.421875 4.078125 -11.214844 3.621094 -10.910156 L 3.621094 -11.265625 C 3.621094 -11.371094 3.59375 -11.445312 3.570312 -11.523438 C 3.519531 -11.574219 3.492188 -11.648438 3.441406 -11.699219 C 3.390625 -11.75 3.289062 -11.804688 3.1875 -11.804688 L 0.332031 -11.804688 C 0.230469 -11.804688 0.179688 -11.726562 0.128906 -11.597656 C 0.078125 -11.445312 0.0507812 -11.292969 0.0507812 -11.113281 C 0.0507812 -10.9375 0.0507812 -10.757812 0.101562 -10.605469 C 0.152344 -10.453125 0.230469 -10.351562 0.332031 -10.296875 C 0.636719 -10.144531 0.816406 -9.96875 0.890625 -9.761719 C 0.96875 -9.558594 1.019531 -9.433594 1.046875 -9.355469 L 1.046875 -2.445312 C 1.019531 -2.34375 0.96875 -2.21875 0.890625 -2.015625 C 0.816406 -1.808594 0.636719 -1.632812 0.332031 -1.480469 C 0.230469 -1.425781 0.152344 -1.324219 0.101562 -1.171875 C 0.0507812 -1.019531 0.0507812 -0.839844 0.0507812 -0.664062 C 0.0507812 -0.484375 0.078125 -0.332031 0.128906 -0.203125 C 0.179688 -0.0507812 0.230469 0 0.332031 0 L 4.332031 0 C 4.410156 0 4.460938 -0.0507812 4.511719 -0.203125 C 4.5625 -0.332031 4.589844 -0.484375 4.589844 -0.664062 C 4.589844 -0.839844 4.589844 -1.019531 4.539062 -1.171875 C 4.488281 -1.324219 4.4375 -1.425781 4.332031 -1.480469 C 4.003906 -1.632812 3.796875 -1.808594 3.722656 -2.015625 C 3.644531 -2.21875 3.621094 -2.34375 3.621094 -2.445312 L 3.621094 -6.066406 C 3.621094 -6.296875 3.644531 -6.652344 3.695312 -7.113281 C 3.746094 -7.570312 3.875 -8.054688 4.078125 -8.515625 C 4.28125 -8.972656 4.5625 -9.382812 4.921875 -9.738281 C 5.277344 -10.09375 5.785156 -10.273438 6.449219 -10.324219 C 6.753906 -10.324219 7.0625 -10.273438 7.316406 -10.222656 C 7.570312 -10.144531 7.800781 -10.042969 7.980469 -9.941406 C 8.132812 -9.839844 8.257812 -9.710938 8.308594 -9.609375 C 8.363281 -9.484375 8.363281 -9.382812 8.257812 -9.328125 C 7.929688 -9.074219 7.75 -8.769531 7.699219 -8.464844 C 7.648438 -8.132812 7.671875 -7.851562 7.800781 -7.597656 C 7.929688 -7.339844 8.132812 -7.1875 8.414062 -7.085938 C 8.691406 -6.984375 9.023438 -7.011719 9.382812 -7.1875 C 9.609375 -7.289062 9.8125 -7.46875 9.96875 -7.773438 C 10.121094 -8.082031 10.222656 -8.414062 10.246094 -8.792969 C 10.273438 -9.152344 10.222656 -9.535156 10.09375 -9.917969 C 9.96875 -10.296875 9.738281 -10.628906 9.433594 -10.9375 Z M 9.433594 -10.9375 "/></g></g></g><g fill="#ffffff" fill-opacity="1"><g transform="translate(84.943181, 24.556175)"><g><path d="M 9.433594 -16.953125 C 9.023438 -17.257812 8.515625 -17.511719 7.953125 -17.664062 C 7.394531 -17.820312 6.78125 -17.871094 6.167969 -17.820312 C 5.558594 -17.769531 4.945312 -17.589844 4.332031 -17.335938 C 3.722656 -17.078125 3.160156 -16.695312 2.675781 -16.1875 C 2.167969 -15.675781 1.785156 -15.066406 1.480469 -14.328125 C 1.171875 -13.5625 1.019531 -12.695312 1.019531 -11.699219 L 1.019531 -2.445312 C 1.019531 -2.34375 0.96875 -2.21875 0.890625 -2.039062 C 0.816406 -1.835938 0.636719 -1.65625 0.332031 -1.503906 C 0.230469 -1.453125 0.152344 -1.324219 0.101562 -1.171875 C 0.0507812 -1.019531 0.0273438 -0.839844 0.0273438 -0.664062 C 0.0273438 -0.484375 0.078125 -0.332031 0.128906 -0.203125 C 0.179688 -0.0507812 0.230469 0 0.332031 0 L 4.308594 0 C 4.382812 0 4.460938 -0.0507812 4.511719 -0.203125 C 4.5625 -0.332031 4.589844 -0.484375 4.589844 -0.664062 C 4.589844 -0.839844 4.5625 -1.019531 4.511719 -1.171875 C 4.460938 -1.324219 4.410156 -1.453125 4.308594 -1.503906 C 4.003906 -1.65625 3.796875 -1.835938 3.722656 -2.039062 C 3.644531 -2.21875 3.59375 -2.34375 3.59375 -2.445312 L 3.59375 -8.308594 C 3.59375 -8.589844 3.671875 -8.820312 3.875 -9.023438 C 4.078125 -9.203125 4.308594 -9.304688 4.589844 -9.328125 L 4.867188 -9.328125 C 5.074219 -9.304688 5.226562 -9.226562 5.378906 -9.101562 C 5.53125 -8.949219 5.609375 -8.792969 5.609375 -8.617188 L 5.609375 -8.363281 C 5.609375 -8.105469 5.734375 -7.980469 6.015625 -7.953125 C 6.09375 -7.953125 6.167969 -7.953125 6.269531 -7.980469 C 6.347656 -8.003906 6.398438 -8.054688 6.398438 -8.132812 C 6.398438 -8.386719 6.398438 -8.640625 6.449219 -8.898438 C 6.5 -9.152344 6.550781 -9.382812 6.628906 -9.636719 C 6.652344 -9.710938 6.679688 -9.761719 6.679688 -9.8125 C 6.679688 -9.867188 6.652344 -9.941406 6.628906 -10.042969 C 6.550781 -10.246094 6.5 -10.503906 6.449219 -10.757812 C 6.398438 -11.011719 6.398438 -11.265625 6.398438 -11.546875 C 6.398438 -11.597656 6.347656 -11.648438 6.269531 -11.648438 C 6.167969 -11.648438 6.09375 -11.675781 6.015625 -11.675781 C 5.734375 -11.675781 5.609375 -11.546875 5.609375 -11.320312 L 5.609375 -11.0625 C 5.609375 -10.859375 5.53125 -10.679688 5.378906 -10.527344 C 5.226562 -10.375 5.074219 -10.324219 4.867188 -10.324219 L 4.589844 -10.324219 C 4.308594 -10.324219 4.078125 -10.425781 3.875 -10.628906 C 3.671875 -10.808594 3.59375 -11.039062 3.59375 -11.320312 L 3.59375 -11.828125 C 3.59375 -12.644531 3.695312 -13.382812 3.898438 -14.046875 C 3.976562 -14.300781 4.078125 -14.582031 4.230469 -14.863281 C 4.359375 -15.117188 4.539062 -15.371094 4.742188 -15.574219 C 4.945312 -15.78125 5.175781 -15.957031 5.457031 -16.109375 C 5.734375 -16.238281 6.066406 -16.316406 6.476562 -16.339844 C 6.78125 -16.339844 7.085938 -16.316406 7.339844 -16.238281 C 7.597656 -16.160156 7.824219 -16.085938 8.003906 -15.984375 C 8.15625 -15.882812 8.285156 -15.753906 8.335938 -15.652344 C 8.386719 -15.523438 8.363281 -15.421875 8.257812 -15.347656 C 7.929688 -15.089844 7.722656 -14.785156 7.671875 -14.480469 C 7.621094 -14.171875 7.648438 -13.894531 7.800781 -13.636719 C 7.929688 -13.382812 8.132812 -13.203125 8.414062 -13.101562 C 8.691406 -13 9.023438 -13.027344 9.40625 -13.203125 C 9.609375 -13.308594 9.8125 -13.511719 9.96875 -13.816406 C 10.121094 -14.121094 10.222656 -14.453125 10.273438 -14.835938 C 10.296875 -15.191406 10.246094 -15.574219 10.121094 -15.957031 C 9.992188 -16.339844 9.761719 -16.671875 9.433594 -16.953125 Z M 9.433594 -16.953125 "/></g></g></g><g fill="#ffffff" fill-opacity="1"><g transform="translate(94.655117, 24.556175)"><g><path d="M 10.121094 -1.503906 C 9.8125 -1.65625 9.636719 -1.808594 9.558594 -2.015625 C 9.484375 -2.191406 9.457031 -2.34375 9.457031 -2.445312 L 9.457031 -5.046875 C 9.457031 -5.734375 9.433594 -6.320312 9.433594 -6.804688 C 9.40625 -7.265625 9.382812 -7.671875 9.355469 -7.980469 C 9.304688 -8.285156 9.277344 -8.589844 9.226562 -8.898438 C 9.125 -9.40625 8.949219 -9.839844 8.667969 -10.195312 C 8.363281 -10.554688 8.03125 -10.859375 7.621094 -11.113281 C 7.214844 -11.371094 6.804688 -11.546875 6.398438 -11.648438 C 5.964844 -11.75 5.582031 -11.804688 5.226562 -11.804688 C 4.921875 -11.777344 4.589844 -11.75 4.230469 -11.699219 C 3.875 -11.648438 3.519531 -11.546875 3.160156 -11.445312 C 2.804688 -11.320312 2.5 -11.164062 2.191406 -10.960938 C 1.886719 -10.757812 1.605469 -10.476562 1.402344 -10.171875 C 1.121094 -9.789062 0.917969 -9.457031 0.816406 -9.152344 C 0.6875 -8.84375 0.613281 -8.566406 0.613281 -8.335938 C 0.585938 -8.105469 0.613281 -7.902344 0.664062 -7.75 C 0.714844 -7.597656 0.816406 -7.46875 0.917969 -7.417969 C 1.25 -7.113281 1.582031 -7.011719 1.910156 -7.0625 C 2.242188 -7.113281 2.5 -7.265625 2.703125 -7.496094 C 2.90625 -7.722656 3.007812 -8.003906 3.007812 -8.335938 C 3.007812 -8.667969 2.855469 -8.972656 2.550781 -9.226562 C 2.445312 -9.277344 2.472656 -9.40625 2.625 -9.636719 C 2.777344 -9.867188 3.058594 -10.09375 3.492188 -10.351562 C 3.898438 -10.578125 4.308594 -10.707031 4.714844 -10.707031 C 5.097656 -10.707031 5.378906 -10.679688 5.53125 -10.605469 C 5.992188 -10.402344 6.320312 -10.070312 6.527344 -9.585938 C 6.730469 -9.074219 6.832031 -8.589844 6.882812 -8.105469 C 6.578125 -7.851562 6.21875 -7.671875 5.8125 -7.519531 C 5.378906 -7.367188 4.921875 -7.214844 4.460938 -7.085938 C 3.976562 -6.933594 3.492188 -6.804688 3.007812 -6.652344 C 2.523438 -6.5 2.089844 -6.296875 1.683594 -6.09375 C 1.273438 -5.863281 0.941406 -5.582031 0.664062 -5.25 C 0.382812 -4.894531 0.203125 -4.488281 0.152344 -4.003906 C 0.078125 -3.441406 0.078125 -2.984375 0.152344 -2.625 C 0.203125 -2.242188 0.304688 -1.9375 0.433594 -1.683594 C 0.535156 -1.425781 0.664062 -1.25 0.816406 -1.097656 C 0.941406 -0.941406 1.046875 -0.867188 1.148438 -0.816406 C 1.300781 -0.664062 1.480469 -0.5625 1.632812 -0.511719 L 2.089844 -0.304688 C 2.242188 -0.230469 2.421875 -0.179688 2.574219 -0.152344 C 2.726562 -0.128906 2.878906 -0.101562 3.085938 -0.078125 C 3.644531 0 4.207031 -0.0273438 4.742188 -0.152344 C 5.25 -0.28125 5.761719 -0.433594 6.246094 -0.636719 C 6.449219 -0.738281 6.679688 -0.867188 6.882812 -1.019531 L 6.882812 -0.5625 C 6.855469 -0.433594 6.855469 -0.332031 6.910156 -0.28125 C 6.933594 -0.078125 7.0625 0 7.265625 0 L 10.121094 0 C 10.195312 0 10.273438 -0.0507812 10.324219 -0.203125 C 10.375 -0.332031 10.402344 -0.484375 10.402344 -0.664062 C 10.402344 -0.839844 10.402344 -1.019531 10.351562 -1.171875 C 10.296875 -1.324219 10.222656 -1.453125 10.121094 -1.503906 Z M 6.882812 -6.804688 L 6.882812 -2.523438 C 6.578125 -2.242188 6.21875 -2.039062 5.8125 -1.886719 C 5.378906 -1.734375 4.972656 -1.65625 4.589844 -1.65625 C 3.773438 -1.65625 3.136719 -1.886719 2.675781 -2.34375 C 2.21875 -2.804688 2.066406 -3.414062 2.21875 -4.179688 C 2.269531 -4.488281 2.523438 -4.792969 2.957031 -5.074219 C 3.390625 -5.351562 3.875 -5.609375 4.410156 -5.835938 C 4.921875 -6.042969 5.429688 -6.246094 5.914062 -6.398438 C 6.371094 -6.550781 6.703125 -6.703125 6.882812 -6.804688 Z M 6.882812 -6.804688 "/></g></g></g><g fill="#ffffff" fill-opacity="1"><g transform="translate(104.519998, 24.556175)"><g><path d="M 7.46875 -4.5625 C 7.113281 -4.714844 6.78125 -4.742188 6.5 -4.640625 C 6.195312 -4.539062 5.992188 -4.359375 5.863281 -4.105469 C 5.710938 -3.847656 5.683594 -3.542969 5.734375 -3.238281 C 5.785156 -2.929688 5.992188 -2.652344 6.320312 -2.394531 C 6.398438 -2.320312 6.476562 -2.191406 6.527344 -2.039062 C 6.578125 -1.859375 6.550781 -1.683594 6.449219 -1.53125 C 6.371094 -1.402344 6.246094 -1.324219 6.066406 -1.273438 C 5.863281 -1.222656 5.683594 -1.25 5.480469 -1.351562 C 5.277344 -1.425781 5.097656 -1.582031 4.945312 -1.808594 C 4.765625 -2.015625 4.664062 -2.34375 4.613281 -2.753906 C 4.5625 -3.136719 4.539062 -3.519531 4.539062 -3.898438 C 4.511719 -4.257812 4.511719 -4.613281 4.511719 -4.921875 L 4.511719 -10.476562 C 4.539062 -10.730469 4.640625 -10.9375 4.84375 -11.113281 C 5.023438 -11.265625 5.25 -11.371094 5.507812 -11.371094 L 6.832031 -11.371094 C 6.960938 -11.371094 7.0625 -11.421875 7.164062 -11.523438 C 7.265625 -11.625 7.316406 -11.726562 7.316406 -11.878906 C 7.316406 -12.007812 7.265625 -12.132812 7.164062 -12.234375 C 7.0625 -12.339844 6.960938 -12.390625 6.832031 -12.390625 L 5.507812 -12.390625 C 5.25 -12.390625 5.023438 -12.464844 4.84375 -12.644531 C 4.640625 -12.796875 4.539062 -13.027344 4.511719 -13.28125 L 4.511719 -15.191406 C 4.511719 -15.296875 4.488281 -15.371094 4.460938 -15.449219 C 4.410156 -15.5 4.382812 -15.574219 4.332031 -15.625 C 4.28125 -15.675781 4.207031 -15.726562 4.105469 -15.726562 L 1.171875 -15.726562 C 1.070312 -15.726562 1.019531 -15.652344 0.96875 -15.523438 C 0.917969 -15.371094 0.890625 -15.21875 0.890625 -15.039062 C 0.890625 -14.863281 0.890625 -14.683594 0.941406 -14.53125 C 0.996094 -14.378906 1.070312 -14.277344 1.171875 -14.222656 C 1.480469 -14.070312 1.65625 -13.894531 1.757812 -13.714844 C 1.835938 -13.511719 1.886719 -13.382812 1.910156 -13.28125 C 1.859375 -13.027344 1.757812 -12.824219 1.582031 -12.644531 C 1.375 -12.464844 1.171875 -12.390625 0.917969 -12.390625 L 0.636719 -12.390625 C 0.484375 -12.390625 0.355469 -12.339844 0.253906 -12.234375 C 0.152344 -12.132812 0.128906 -12.007812 0.128906 -11.878906 C 0.128906 -11.726562 0.152344 -11.625 0.253906 -11.523438 C 0.355469 -11.421875 0.484375 -11.371094 0.636719 -11.371094 L 0.917969 -11.371094 C 1.171875 -11.34375 1.402344 -11.242188 1.605469 -11.0625 C 1.785156 -10.886719 1.886719 -10.65625 1.910156 -10.402344 L 1.910156 -5.964844 C 1.910156 -4.742188 2.039062 -3.671875 2.242188 -2.804688 C 2.445312 -1.910156 2.777344 -1.25 3.210938 -0.816406 C 3.519531 -0.457031 3.847656 -0.230469 4.207031 -0.101562 C 4.5625 0.0507812 4.945312 0.101562 5.351562 0.101562 C 5.734375 0.101562 6.117188 0 6.5 -0.152344 C 6.855469 -0.304688 7.214844 -0.511719 7.519531 -0.765625 C 7.851562 -1.019531 8.082031 -1.351562 8.207031 -1.757812 C 8.335938 -2.140625 8.386719 -2.523438 8.363281 -2.90625 C 8.308594 -3.289062 8.207031 -3.644531 8.054688 -3.953125 C 7.902344 -4.257812 7.699219 -4.460938 7.46875 -4.5625 Z M 7.46875 -4.5625 "/></g></g></g><g fill="#ffffff" fill-opacity="1"><g transform="translate(112.243654, 24.556175)"><g><path d="M 5.378906 -1.480469 C 5.046875 -1.632812 4.84375 -1.808594 4.792969 -2.015625 C 4.714844 -2.21875 4.691406 -2.34375 4.691406 -2.445312 L 4.691406 -11.242188 C 4.691406 -11.34375 4.664062 -11.421875 4.640625 -11.523438 C 4.589844 -11.574219 4.5625 -11.648438 4.511719 -11.699219 C 4.460938 -11.75 4.359375 -11.804688 4.257812 -11.804688 L 1.402344 -11.804688 C 1.300781 -11.804688 1.25 -11.726562 1.199219 -11.597656 C 1.148438 -11.445312 1.121094 -11.292969 1.121094 -11.113281 C 1.121094 -10.9375 1.121094 -10.757812 1.171875 -10.605469 C 1.222656 -10.425781 1.300781 -10.324219 1.402344 -10.273438 C 1.707031 -10.121094 1.886719 -9.941406 1.960938 -9.761719 C 2.039062 -9.558594 2.089844 -9.433594 2.117188 -9.355469 L 2.117188 -2.445312 C 2.089844 -2.34375 2.039062 -2.21875 1.960938 -2.015625 C 1.886719 -1.808594 1.707031 -1.632812 1.402344 -1.480469 C 1.300781 -1.425781 1.222656 -1.324219 1.171875 -1.171875 C 1.121094 -1.019531 1.121094 -0.839844 1.121094 -0.664062 C 1.121094 -0.484375 1.148438 -0.332031 1.199219 -0.203125 C 1.25 -0.0507812 1.300781 0 1.402344 0 L 5.378906 0 C 5.457031 0 5.53125 -0.0507812 5.582031 -0.203125 C 5.632812 -0.332031 5.660156 -0.484375 5.660156 -0.664062 C 5.660156 -0.839844 5.632812 -1.019531 5.582031 -1.171875 C 5.53125 -1.324219 5.480469 -1.425781 5.378906 -1.480469 Z M 3.390625 -12.976562 C 3.773438 -12.976562 4.105469 -13.101562 4.410156 -13.410156 C 4.691406 -13.6875 4.84375 -14.046875 4.84375 -14.453125 C 4.84375 -14.835938 4.691406 -15.167969 4.410156 -15.472656 C 4.105469 -15.753906 3.773438 -15.90625 3.390625 -15.90625 C 2.984375 -15.90625 2.625 -15.753906 2.34375 -15.472656 C 2.066406 -15.167969 1.9375 -14.835938 1.9375 -14.453125 C 1.9375 -14.046875 2.066406 -13.6875 2.34375 -13.410156 C 2.625 -13.101562 2.984375 -12.976562 3.390625 -12.976562 Z M 3.390625 -12.976562 "/></g></g></g><g fill="#2a9840" fill-opacity="1"><g transform="translate(35.717103, 30.712007)"><g><path d="M 2.257812 0.09375 C 2.582031 0.09375 2.890625 -0.0117188 3.191406 -0.214844 C 3.441406 -0.398438 3.652344 -0.636719 3.816406 -0.929688 L 3.71875 -0.988281 C 3.347656 -0.421875 2.925781 -0.132812 2.464844 -0.132812 C 2.015625 -0.132812 1.644531 -0.292969 1.359375 -0.609375 C 1.054688 -0.9375 0.902344 -1.375 0.902344 -1.921875 C 0.902344 -2.5 1.035156 -2.960938 1.300781 -3.320312 C 1.574219 -3.6875 1.9375 -3.875 2.375 -3.875 C 2.675781 -3.875 2.9375 -3.765625 3.167969 -3.535156 C 3.402344 -3.3125 3.535156 -3.042969 3.578125 -2.722656 L 3.71875 -2.722656 L 3.617188 -4.074219 L 3.519531 -4.074219 C 3.488281 -3.929688 3.390625 -3.804688 3.300781 -3.804688 C 3.261719 -3.804688 3.203125 -3.828125 3.113281 -3.875 C 3.015625 -3.929688 2.914062 -3.976562 2.816406 -4.003906 C 2.664062 -4.050781 2.480469 -4.074219 2.277344 -4.074219 C 1.714844 -4.074219 1.222656 -3.863281 0.808594 -3.449219 C 0.390625 -3.03125 0.1875 -2.535156 0.1875 -1.945312 C 0.1875 -1.375 0.386719 -0.890625 0.777344 -0.496094 C 1.171875 -0.105469 1.667969 0.09375 2.257812 0.09375 Z M 2.257812 0.09375 "/></g></g></g><g fill="#2a9840" fill-opacity="1"><g transform="translate(40.82772, 30.712007)"><g><path d="M 2.199219 0.09375 C 2.734375 0.09375 3.136719 -0.0507812 3.417969 -0.34375 C 3.664062 -0.609375 3.789062 -0.960938 3.789062 -1.398438 L 3.789062 -3.347656 C 3.789062 -3.765625 3.929688 -3.875 4.347656 -3.875 L 4.347656 -3.980469 L 2.957031 -3.980469 L 2.957031 -3.875 C 3.378906 -3.875 3.519531 -3.765625 3.519531 -3.347656 L 3.519531 -1.398438 C 3.519531 -1.042969 3.417969 -0.753906 3.21875 -0.527344 C 3.007812 -0.285156 2.734375 -0.164062 2.394531 -0.164062 C 2.054688 -0.164062 1.785156 -0.28125 1.582031 -0.519531 C 1.375 -0.761719 1.269531 -1.054688 1.269531 -1.398438 L 1.269531 -3.347656 C 1.269531 -3.765625 1.410156 -3.875 1.832031 -3.875 L 1.832031 -3.980469 L 0.0976562 -3.980469 L 0.0976562 -3.875 C 0.519531 -3.875 0.660156 -3.765625 0.660156 -3.347656 L 0.660156 -1.410156 C 0.660156 -0.976562 0.789062 -0.625 1.054688 -0.351562 C 1.335938 -0.0507812 1.714844 0.09375 2.199219 0.09375 Z M 2.199219 0.09375 "/></g></g></g><g fill="#2a9840" fill-opacity="1"><g transform="translate(46.33056, 30.712007)"><g><path d="M 0.117188 -0.105469 L 0.117188 0 L 3.226562 0 L 3.570312 -1.082031 L 3.453125 -1.113281 C 3.261719 -0.503906 2.863281 -0.199219 2.257812 -0.199219 L 1.515625 -0.199219 C 1.394531 -0.199219 1.289062 -0.332031 1.289062 -0.496094 L 1.289062 -3.347656 C 1.289062 -3.765625 1.429688 -3.875 1.851562 -3.875 L 1.851562 -3.980469 L 0.117188 -3.980469 L 0.117188 -3.875 C 0.539062 -3.875 0.679688 -3.765625 0.679688 -3.347656 L 0.679688 -0.632812 C 0.679688 -0.214844 0.539062 -0.105469 0.117188 -0.105469 Z M 0.117188 -0.105469 "/></g></g></g><g fill="#2a9840" fill-opacity="1"><g transform="translate(51.107493, 30.712007)"><g><path d="M 0.132812 -0.105469 L 0.132812 0 L 1.867188 0 L 1.867188 -0.105469 C 1.445312 -0.105469 1.304688 -0.214844 1.304688 -0.632812 L 1.304688 -3.347656 C 1.304688 -3.765625 1.445312 -3.875 1.867188 -3.875 L 1.867188 -3.980469 L 0.132812 -3.980469 L 0.132812 -3.875 C 0.554688 -3.875 0.695312 -3.765625 0.695312 -3.347656 L 0.695312 -0.632812 C 0.695312 -0.214844 0.554688 -0.105469 0.132812 -0.105469 Z M 0.132812 -0.105469 "/></g></g></g><g fill="#2a9840" fill-opacity="1"><g transform="translate(54.210158, 30.712007)"><g><path d="M 3.523438 0.09375 L 3.664062 0.09375 L 3.664062 -3.347656 C 3.664062 -3.765625 3.804688 -3.875 4.226562 -3.875 L 4.226562 -3.980469 L 2.832031 -3.980469 L 2.832031 -3.875 C 3.253906 -3.875 3.394531 -3.765625 3.394531 -3.347656 L 3.394531 -1.070312 L 3.371094 -1.070312 L 1 -3.980469 L 0 -3.980469 L 0 -3.875 C 0.367188 -3.875 0.660156 -3.640625 0.660156 -3.3125 L 0.660156 -0.632812 C 0.660156 -0.214844 0.519531 -0.105469 0.0976562 -0.105469 L 0.0976562 0 L 1.492188 0 L 1.492188 -0.105469 C 1.070312 -0.105469 0.929688 -0.214844 0.929688 -0.632812 L 0.929688 -3.144531 L 0.953125 -3.144531 Z M 3.523438 0.09375 "/></g></g></g><g fill="#2a9840" fill-opacity="1"><g transform="translate(59.636891, 30.712007)"><g><path d="M 0.0351562 -0.105469 L 0.0351562 0 L 1.304688 0 L 1.304688 -0.105469 C 0.996094 -0.105469 0.84375 -0.191406 0.84375 -0.363281 C 0.84375 -0.433594 0.867188 -0.519531 0.914062 -0.625 L 1.21875 -1.328125 L 2.769531 -1.328125 L 3.066406 -0.625 C 3.113281 -0.519531 3.136719 -0.433594 3.136719 -0.355469 C 3.136719 -0.1875 2.992188 -0.105469 2.703125 -0.105469 L 2.703125 0 L 4.34375 0 L 4.34375 -0.105469 C 4.164062 -0.105469 4.023438 -0.144531 3.929688 -0.226562 C 3.847656 -0.296875 3.765625 -0.433594 3.683594 -0.625 L 2.222656 -4.074219 L 2.085938 -4.074219 L 0.601562 -0.625 C 0.457031 -0.28125 0.261719 -0.105469 0.0351562 -0.105469 Z M 1.304688 -1.550781 L 1.996094 -3.15625 L 2.65625 -1.550781 Z M 1.527344 -4.210938 L 1.691406 -4.210938 L 2.574219 -5.246094 L 1.839844 -5.246094 Z M 1.527344 -4.210938 "/></g></g></g><g fill="#2a9840" fill-opacity="1"><g transform="translate(65.128022, 30.712007)"><g><path d="M 0.117188 -0.105469 L 0.117188 0 L 1.851562 0 L 1.851562 -0.105469 C 1.429688 -0.105469 1.289062 -0.214844 1.289062 -0.632812 L 1.289062 -1.875 L 1.714844 -1.875 L 2.972656 0 L 4.109375 0 L 4.109375 -0.105469 C 3.769531 -0.105469 3.472656 -0.296875 3.207031 -0.683594 L 2.359375 -1.933594 C 2.898438 -2.074219 3.242188 -2.453125 3.242188 -2.945312 C 3.242188 -3.253906 3.132812 -3.507812 2.914062 -3.6875 C 2.675781 -3.882812 2.347656 -3.980469 1.933594 -3.980469 L 0.117188 -3.980469 L 0.117188 -3.875 C 0.539062 -3.875 0.679688 -3.765625 0.679688 -3.347656 L 0.679688 -0.632812 C 0.679688 -0.214844 0.539062 -0.105469 0.117188 -0.105469 Z M 1.289062 -2.074219 L 1.289062 -3.707031 C 1.417969 -3.757812 1.597656 -3.78125 1.828125 -3.78125 C 2.042969 -3.78125 2.222656 -3.699219 2.371094 -3.53125 C 2.515625 -3.371094 2.585938 -3.167969 2.585938 -2.921875 C 2.585938 -2.40625 2.195312 -2.074219 1.640625 -2.074219 Z M 1.289062 -2.074219 "/></g></g></g><g fill="#2a9840" fill-opacity="1"><g transform="translate(70.273761, 30.712007)"><g><path d="M 0.132812 -0.105469 L 0.132812 0 L 1.867188 0 L 1.867188 -0.105469 C 1.445312 -0.105469 1.304688 -0.214844 1.304688 -0.632812 L 1.304688 -3.347656 C 1.304688 -3.765625 1.445312 -3.875 1.867188 -3.875 L 1.867188 -3.980469 L 0.132812 -3.980469 L 0.132812 -3.875 C 0.554688 -3.875 0.695312 -3.765625 0.695312 -3.347656 L 0.695312 -0.632812 C 0.695312 -0.214844 0.554688 -0.105469 0.132812 -0.105469 Z M 0.132812 -0.105469 "/></g></g></g><g fill="#2a9840" fill-opacity="1"><g transform="translate(73.376423, 30.712007)"><g><path d="M 0.0351562 -0.105469 L 0.0351562 0 L 1.304688 0 L 1.304688 -0.105469 C 0.996094 -0.105469 0.84375 -0.191406 0.84375 -0.363281 C 0.84375 -0.433594 0.867188 -0.519531 0.914062 -0.625 L 1.21875 -1.328125 L 2.769531 -1.328125 L 3.066406 -0.625 C 3.113281 -0.519531 3.136719 -0.433594 3.136719 -0.355469 C 3.136719 -0.1875 2.992188 -0.105469 2.703125 -0.105469 L 2.703125 0 L 4.34375 0 L 4.34375 -0.105469 C 4.164062 -0.105469 4.023438 -0.144531 3.929688 -0.226562 C 3.847656 -0.296875 3.765625 -0.433594 3.683594 -0.625 L 2.222656 -4.074219 L 2.085938 -4.074219 L 0.601562 -0.625 C 0.457031 -0.28125 0.261719 -0.105469 0.0351562 -0.105469 Z M 1.304688 -1.550781 L 1.996094 -3.15625 L 2.65625 -1.550781 Z M 1.304688 -1.550781 "/></g></g></g><g fill="#2a9840" fill-opacity="1"><g transform="translate(78.867552, 30.712007)"><g/></g></g><g fill="#2a9840" fill-opacity="1"><g transform="translate(81.431632, 30.712007)"><g><path d="M 0.132812 -0.105469 L 0.132812 0 L 1.867188 0 L 1.867188 -0.105469 C 1.445312 -0.105469 1.304688 -0.214844 1.304688 -0.632812 L 1.304688 -3.347656 C 1.304688 -3.765625 1.445312 -3.875 1.867188 -3.875 L 1.867188 -3.980469 L 0.132812 -3.980469 L 0.132812 -3.875 C 0.554688 -3.875 0.695312 -3.765625 0.695312 -3.347656 L 0.695312 -0.632812 C 0.695312 -0.214844 0.554688 -0.105469 0.132812 -0.105469 Z M 0.132812 -0.105469 "/></g></g></g><g fill="#2a9840" fill-opacity="1"><g transform="translate(84.534294, 30.712007)"><g><path d="M 0.855469 -0.105469 L 0.855469 0 L 2.585938 0 L 2.585938 -0.105469 C 2.164062 -0.105469 2.027344 -0.214844 2.027344 -0.632812 L 2.027344 -3.78125 L 2.457031 -3.78125 C 2.710938 -3.78125 2.898438 -3.71875 3.027344 -3.589844 C 3.136719 -3.476562 3.226562 -3.289062 3.277344 -3.03125 L 3.382812 -3.03125 L 3.335938 -3.980469 L 0.105469 -3.980469 L 0.0585938 -3.03125 L 0.164062 -3.03125 C 0.261719 -3.546875 0.484375 -3.78125 0.984375 -3.78125 L 1.417969 -3.78125 L 1.417969 -0.632812 C 1.417969 -0.214844 1.277344 -0.105469 0.855469 -0.105469 Z M 0.855469 -0.105469 "/></g></g></g><g fill="#2a9840" fill-opacity="1"><g transform="translate(89.088768, 30.712007)"><g><path d="M 0.0351562 -0.105469 L 0.0351562 0 L 1.304688 0 L 1.304688 -0.105469 C 0.996094 -0.105469 0.84375 -0.191406 0.84375 -0.363281 C 0.84375 -0.433594 0.867188 -0.519531 0.914062 -0.625 L 1.21875 -1.328125 L 2.769531 -1.328125 L 3.066406 -0.625 C 3.113281 -0.519531 3.136719 -0.433594 3.136719 -0.355469 C 3.136719 -0.1875 2.992188 -0.105469 2.703125 -0.105469 L 2.703125 0 L 4.34375 0 L 4.34375 -0.105469 C 4.164062 -0.105469 4.023438 -0.144531 3.929688 -0.226562 C 3.847656 -0.296875 3.765625 -0.433594 3.683594 -0.625 L 2.222656 -4.074219 L 2.085938 -4.074219 L 0.601562 -0.625 C 0.457031 -0.28125 0.261719 -0.105469 0.0351562 -0.105469 Z M 1.304688 -1.550781 L 1.996094 -3.15625 L 2.65625 -1.550781 Z M 1.304688 -1.550781 "/></g></g></g><g fill="#2a9840" fill-opacity="1"><g transform="translate(94.579896, 30.712007)"><g><path d="M 0.117188 -0.105469 L 0.117188 0 L 3.226562 0 L 3.570312 -1.082031 L 3.453125 -1.113281 C 3.261719 -0.503906 2.863281 -0.199219 2.257812 -0.199219 L 1.515625 -0.199219 C 1.394531 -0.199219 1.289062 -0.332031 1.289062 -0.496094 L 1.289062 -3.347656 C 1.289062 -3.765625 1.429688 -3.875 1.851562 -3.875 L 1.851562 -3.980469 L 0.117188 -3.980469 L 0.117188 -3.875 C 0.539062 -3.875 0.679688 -3.765625 0.679688 -3.347656 L 0.679688 -0.632812 C 0.679688 -0.214844 0.539062 -0.105469 0.117188 -0.105469 Z M 0.117188 -0.105469 "/></g></g></g><g fill="#2a9840" fill-opacity="1"><g transform="translate(99.356828, 30.712007)"><g><path d="M 0.132812 -0.105469 L 0.132812 0 L 1.867188 0 L 1.867188 -0.105469 C 1.445312 -0.105469 1.304688 -0.214844 1.304688 -0.632812 L 1.304688 -3.347656 C 1.304688 -3.765625 1.445312 -3.875 1.867188 -3.875 L 1.867188 -3.980469 L 0.132812 -3.980469 L 0.132812 -3.875 C 0.554688 -3.875 0.695312 -3.765625 0.695312 -3.347656 L 0.695312 -0.632812 C 0.695312 -0.214844 0.554688 -0.105469 0.132812 -0.105469 Z M 0.132812 -0.105469 "/></g></g></g><g fill="#2a9840" fill-opacity="1"><g transform="translate(102.459491, 30.712007)"><g><path d="M 0.0351562 -0.105469 L 0.0351562 0 L 1.304688 0 L 1.304688 -0.105469 C 0.996094 -0.105469 0.84375 -0.191406 0.84375 -0.363281 C 0.84375 -0.433594 0.867188 -0.519531 0.914062 -0.625 L 1.21875 -1.328125 L 2.769531 -1.328125 L 3.066406 -0.625 C 3.113281 -0.519531 3.136719 -0.433594 3.136719 -0.355469 C 3.136719 -0.1875 2.992188 -0.105469 2.703125 -0.105469 L 2.703125 0 L 4.34375 0 L 4.34375 -0.105469 C 4.164062 -0.105469 4.023438 -0.144531 3.929688 -0.226562 C 3.847656 -0.296875 3.765625 -0.433594 3.683594 -0.625 L 2.222656 -4.074219 L 2.085938 -4.074219 L 0.601562 -0.625 C 0.457031 -0.28125 0.261719 -0.105469 0.0351562 -0.105469 Z M 1.304688 -1.550781 L 1.996094 -3.15625 L 2.65625 -1.550781 Z M 1.304688 -1.550781 "/></g></g></g><g fill="#2a9840" fill-opacity="1"><g transform="translate(107.950619, 30.712007)"><g><path d="M 3.523438 0.09375 L 3.664062 0.09375 L 3.664062 -3.347656 C 3.664062 -3.765625 3.804688 -3.875 4.226562 -3.875 L 4.226562 -3.980469 L 2.832031 -3.980469 L 2.832031 -3.875 C 3.253906 -3.875 3.394531 -3.765625 3.394531 -3.347656 L 3.394531 -1.070312 L 3.371094 -1.070312 L 1 -3.980469 L 0 -3.980469 L 0 -3.875 C 0.367188 -3.875 0.660156 -3.640625 0.660156 -3.3125 L 0.660156 -0.632812 C 0.660156 -0.214844 0.519531 -0.105469 0.0976562 -0.105469 L 0.0976562 0 L 1.492188 0 L 1.492188 -0.105469 C 1.070312 -0.105469 0.929688 -0.214844 0.929688 -0.632812 L 0.929688 -3.144531 L 0.953125 -3.144531 Z M 3.523438 0.09375 "/></g></g></g><g fill="#2a9840" fill-opacity="1"><g transform="translate(113.377351, 30.712007)"><g><path d="M 0.0351562 -0.105469 L 0.0351562 0 L 1.304688 0 L 1.304688 -0.105469 C 0.996094 -0.105469 0.84375 -0.191406 0.84375 -0.363281 C 0.84375 -0.433594 0.867188 -0.519531 0.914062 -0.625 L 1.21875 -1.328125 L 2.769531 -1.328125 L 3.066406 -0.625 C 3.113281 -0.519531 3.136719 -0.433594 3.136719 -0.355469 C 3.136719 -0.1875 2.992188 -0.105469 2.703125 -0.105469 L 2.703125 0 L 4.34375 0 L 4.34375 -0.105469 C 4.164062 -0.105469 4.023438 -0.144531 3.929688 -0.226562 C 3.847656 -0.296875 3.765625 -0.433594 3.683594 -0.625 L 2.222656 -4.074219 L 2.085938 -4.074219 L 0.601562 -0.625 C 0.457031 -0.28125 0.261719 -0.105469 0.0351562 -0.105469 Z M 1.304688 -1.550781 L 1.996094 -3.15625 L 2.65625 -1.550781 Z M 1.304688 -1.550781 "/></g></g></g></svg>