<svg xmlns="http://www.w3.org/2000/svg" xmlns:xlink="http://www.w3.org/1999/xlink" width="160" zoomAndPan="magnify" viewBox="0 0 120 37.5" height="50" preserveAspectRatio="xMidYMid meet" version="1.0"><defs><clipPath id="3a1af77683"><path d="M 0.789062 11.816406 L 119.210938 11.816406 L 119.210938 25.140625 L 0.789062 25.140625 Z M 0.789062 11.816406 " clip-rule="nonzero"/></clipPath></defs><g clip-path="url(#3a1af77683)"><path fill="#ffffff" d="M 59.628906 24.910156 C 59.511719 24.792969 59.457031 24.652344 59.464844 24.484375 C 59.464844 24.128906 59.65625 23.953125 60.035156 23.949219 C 60.183594 23.941406 60.3125 23.992188 60.417969 24.097656 C 60.523438 24.207031 60.574219 24.332031 60.5625 24.484375 C 60.5625 24.945312 60.050781 25.179688 59.628906 24.910156 Z M 35.609375 24.046875 C 33.816406 23.53125 32.644531 21.03125 33.339844 19.203125 C 34.210938 16.90625 37.179688 15.867188 40.320312 16.765625 C 41.855469 17.203125 43.675781 18.152344 46.363281 19.917969 C 47.671875 20.773438 49.035156 21.625 49.394531 21.808594 C 51.699219 22.976562 54.023438 22.945312 55.277344 21.730469 C 56.847656 20.203125 56.269531 17.882812 54.046875 16.804688 C 53.289062 16.4375 51.855469 16.355469 51.238281 16.648438 C 50.347656 17.070312 50.386719 17.726562 51.363281 18.664062 C 52.039062 19.3125 52.183594 19.734375 51.832031 20.027344 C 51.535156 20.273438 51.136719 20.070312 50.378906 19.28125 C 49.585938 18.457031 49.3125 17.832031 49.441406 17.140625 C 49.78125 15.328125 52.390625 14.640625 54.703125 15.757812 C 55.734375 16.230469 56.507812 16.972656 57.023438 17.980469 C 57.367188 18.671875 57.414062 18.886719 57.414062 19.726562 C 57.417969 20.527344 57.367188 20.789062 57.09375 21.335938 C 56.234375 23.089844 54.371094 24.070312 52.199219 23.914062 C 50.273438 23.773438 49.144531 23.265625 45.757812 21.023438 C 40.632812 17.621094 37.777344 16.902344 35.46875 18.425781 C 34.148438 19.296875 34.050781 21.203125 35.261719 22.378906 C 36.035156 23.128906 36.5625 23.027344 36.714844 22.097656 C 36.835938 21.386719 36.96875 21.214844 37.402344 21.214844 C 37.828125 21.214844 37.988281 21.496094 37.988281 22.230469 C 38 22.589844 37.914062 22.925781 37.730469 23.238281 C 37.550781 23.546875 37.296875 23.785156 36.976562 23.949219 C 36.4375 24.210938 36.234375 24.222656 35.613281 24.046875 Z M 83.320312 24.105469 C 82.859375 23.945312 82.5 23.65625 82.25 23.234375 C 82.039062 22.824219 82.015625 21.558594 82.214844 21.359375 C 82.351562 21.261719 82.5 21.214844 82.667969 21.21875 C 83.097656 21.21875 83.261719 21.425781 83.261719 21.960938 C 83.261719 22.824219 83.609375 23.078125 84.308594 22.714844 C 85.03125 22.335938 85.632812 21.296875 85.636719 20.410156 C 85.640625 19.398438 84.761719 18.339844 83.570312 17.925781 C 82.554688 17.570312 80.960938 17.644531 79.578125 18.113281 C 78.125 18.609375 77.1875 19.121094 74.347656 20.984375 C 70.867188 23.269531 69.6875 23.792969 67.742188 23.914062 C 67.089844 24 66.449219 23.9375 65.824219 23.730469 C 64.324219 23.277344 63.183594 22.238281 62.75 20.933594 C 62.476562 19.925781 62.550781 18.941406 62.980469 17.984375 C 64.183594 15.523438 67.9375 14.382812 69.847656 15.898438 C 70.535156 16.441406 70.746094 17.628906 70.3125 18.476562 C 70.046875 19 68.816406 20.148438 68.523438 20.148438 C 68.207031 20.074219 68.011719 19.882812 67.933594 19.570312 C 68.125 19.238281 68.355469 18.941406 68.632812 18.679688 C 69.410156 17.84375 69.554688 17.542969 69.359375 17.175781 C 68.96875 16.449219 67.496094 16.230469 66.21875 16.707031 C 65.464844 16.992188 64.453125 17.847656 64.136719 18.472656 C 62.980469 20.753906 65.160156 23.054688 68.085938 22.640625 C 69.476562 22.441406 70.574219 21.921875 73.109375 20.257812 C 76.566406 17.996094 77.492188 17.492188 79.519531 16.785156 C 80.105469 16.582031 80.523438 16.535156 81.894531 16.53125 C 83.542969 16.523438 83.566406 16.527344 84.421875 16.929688 C 85.40625 17.375 86.140625 18.082031 86.621094 19.054688 C 87.507812 21.023438 86.039062 23.878906 84.015625 24.117188 C 83.78125 24.148438 83.550781 24.144531 83.320312 24.105469 Z M 59.578125 22.828125 C 59.4375 22.59375 59.351562 22.335938 59.328125 22.0625 C 59.097656 21.101562 58.808594 20.15625 58.464844 19.230469 C 57.78125 17.289062 57.679688 16.882812 57.667969 16.109375 C 57.613281 15.507812 57.734375 14.941406 58.03125 14.417969 C 58.253906 13.953125 58.511719 13.511719 58.804688 13.09375 C 59.019531 12.800781 59.222656 12.5 59.40625 12.1875 C 59.582031 11.871094 59.671875 11.820312 59.992188 11.851562 C 60.316406 11.882812 60.464844 12.019531 60.953125 12.71875 C 62.695312 15.222656 62.75 16.035156 61.398438 19.613281 C 61.136719 20.3125 60.917969 21.023438 60.742188 21.75 C 60.675781 22.128906 60.566406 22.496094 60.417969 22.851562 C 60.257812 23.050781 59.789062 23.039062 59.582031 22.828125 Z M 60.804688 17.679688 C 60.984375 17.15625 61.101562 16.625 61.15625 16.074219 C 61.15625 15.539062 60.785156 14.636719 60.296875 13.996094 L 60.003906 13.609375 L 59.574219 14.234375 C 59.015625 15.046875 58.757812 15.792969 58.851562 16.335938 C 59.09375 17.34375 59.398438 18.332031 59.765625 19.304688 L 60.003906 19.949219 L 60.226562 19.367188 C 60.347656 19.042969 60.609375 18.285156 60.804688 17.683594 Z M 59.519531 16.558594 C 59.425781 16.445312 59.378906 16.3125 59.375 16.164062 C 59.375 15.816406 59.601562 15.632812 60.03125 15.632812 C 60.460938 15.632812 60.683594 15.816406 60.683594 16.164062 C 60.683594 16.515625 60.460938 16.699219 60.03125 16.699219 C 59.84375 16.707031 59.675781 16.660156 59.519531 16.558594 Z M 5.308594 21.820312 C 3.820312 21.601562 2.972656 21.242188 2.140625 20.472656 C 1.335938 19.730469 1.007812 19.089844 0.9375 18.121094 C 0.886719 17.398438 0.917969 17.21875 1.207031 16.636719 C 2.003906 15.007812 3.917969 14.519531 5.710938 15.488281 C 6.070312 15.675781 6.363281 15.9375 6.589844 16.273438 C 6.816406 16.609375 6.949219 16.980469 6.984375 17.382812 C 7.097656 18.199219 6.972656 18.480469 6.5 18.480469 C 6.292969 18.46875 6.121094 18.382812 5.980469 18.230469 C 5.84375 18.078125 5.777344 17.894531 5.785156 17.6875 C 5.785156 16.960938 5.074219 16.386719 4.007812 16.261719 C 3.625 16.203125 3.273438 16.273438 2.945312 16.476562 C 2.617188 16.679688 2.398438 16.964844 2.28125 17.328125 C 1.992188 18.078125 2.1875 18.726562 2.914062 19.445312 C 3.746094 20.269531 4.519531 20.519531 6.472656 20.59375 C 10.332031 20.738281 14.046875 19.699219 19.578125 16.929688 C 24.652344 14.390625 28.589844 13.253906 32.28125 13.253906 C 34.828125 13.257812 37.550781 13.65625 39.546875 14.324219 C 41.976562 15.132812 45.792969 17.023438 46.078125 17.550781 C 46.121094 17.617188 46.144531 17.695312 46.152344 17.777344 C 46.160156 17.855469 46.148438 17.9375 46.117188 18.011719 C 46.085938 18.085938 46.039062 18.152344 45.980469 18.207031 C 45.917969 18.261719 45.847656 18.296875 45.765625 18.316406 C 45.558594 18.367188 45.246094 18.242188 44.585938 17.84375 C 43.589844 17.238281 40.589844 15.941406 39.113281 15.476562 C 37.042969 14.824219 35.125 14.5625 32.402344 14.5625 C 28.5625 14.5625 25.902344 15.3125 20.398438 17.953125 C 15.5 20.300781 13.375 21.078125 10.425781 21.582031 C 8.894531 21.84375 6.296875 21.964844 5.308594 21.820312 Z M 111.070312 21.804688 C 107.429688 21.355469 105.128906 20.585938 99.890625 18.0625 C 94.269531 15.359375 91.457031 14.558594 87.554688 14.5625 C 84.742188 14.566406 82.5 14.90625 80.351562 15.652344 C 78.875 16.167969 76.277344 17.320312 75.445312 17.832031 C 75.109375 18.058594 74.753906 18.234375 74.371094 18.363281 C 73.847656 18.363281 73.707031 17.722656 74.140625 17.332031 C 74.902344 16.644531 77.84375 15.238281 80.316406 14.378906 C 83.503906 13.269531 88.097656 12.949219 91.351562 13.609375 C 94.25 14.199219 95.996094 14.824219 99.675781 16.589844 C 106.339844 19.792969 108.90625 20.5625 112.910156 20.5625 C 115.210938 20.5625 115.929688 20.414062 116.792969 19.753906 C 118.09375 18.761719 118.183594 17.195312 116.980469 16.460938 C 116.511719 16.175781 116.046875 16.160156 115.308594 16.414062 C 114.695312 16.621094 114.277344 17.054688 114.277344 17.480469 C 114.277344 18.175781 113.683594 18.6875 113.21875 18.398438 C 112.773438 18.121094 112.980469 16.726562 113.566406 16.058594 C 114.394531 15.117188 116.378906 14.695312 117.425781 15.242188 C 117.9375 15.484375 118.34375 15.84375 118.640625 16.324219 C 118.941406 16.808594 119.085938 17.332031 119.078125 17.898438 C 119.070312 19.671875 117.789062 21.054688 115.613281 21.636719 C 114.777344 21.859375 112.277344 21.949219 111.066406 21.800781 Z M 21.121094 19.804688 C 20.875 19.34375 21.296875 18.898438 21.804688 19.089844 C 22.027344 19.175781 22.070312 19.265625 22.042969 19.582031 C 22.007812 19.917969 21.957031 19.972656 21.625 20.003906 C 21.347656 20.03125 21.214844 19.980469 21.121094 19.804688 Z M 98.019531 19.886719 C 97.671875 19.535156 98.105469 18.914062 98.609375 19.046875 C 98.90625 19.125 98.996094 19.339844 98.898438 19.730469 C 98.84375 19.957031 98.746094 20.027344 98.492188 20.027344 C 98.320312 20.03125 98.164062 19.984375 98.019531 19.886719 Z M 23.632812 18.933594 C 23.46875 18.761719 23.433594 18.5625 23.523438 18.34375 C 23.617188 18.121094 23.785156 18.011719 24.023438 18.007812 C 24.171875 18.007812 24.296875 18.058594 24.402344 18.164062 C 24.507812 18.269531 24.558594 18.394531 24.558594 18.542969 C 24.558594 18.6875 24.507812 18.816406 24.402344 18.917969 C 24.296875 19.023438 24.171875 19.074219 24.023438 19.074219 C 23.875 19.074219 23.746094 19.027344 23.632812 18.933594 Z M 95.644531 18.933594 C 95.550781 18.820312 95.503906 18.691406 95.5 18.542969 C 95.5 18.007812 96.210938 17.792969 96.457031 18.253906 C 96.71875 18.746094 96.035156 19.324219 95.644531 18.933594 Z M 26.453125 17.820312 C 26.332031 17.664062 26.316406 17.496094 26.414062 17.316406 C 26.449219 17.195312 26.519531 17.097656 26.625 17.027344 C 26.734375 16.960938 26.847656 16.933594 26.976562 16.953125 C 27.101562 16.972656 27.207031 17.03125 27.289062 17.125 C 27.371094 17.222656 27.414062 17.335938 27.410156 17.464844 C 27.410156 17.714844 27.292969 17.886719 27.058594 17.976562 C 26.820312 18.066406 26.621094 18.011719 26.453125 17.820312 Z M 92.71875 17.820312 C 92.617188 17.726562 92.554688 17.609375 92.53125 17.472656 C 92.554688 17.335938 92.617188 17.21875 92.71875 17.125 C 92.871094 16.933594 93.058594 16.882812 93.285156 16.972656 C 93.515625 17.0625 93.617188 17.230469 93.601562 17.472656 C 93.617188 17.714844 93.515625 17.882812 93.285156 17.972656 C 93.058594 18.0625 92.871094 18.011719 92.71875 17.820312 Z M 29.023438 16.988281 C 28.921875 16.894531 28.859375 16.777344 28.835938 16.640625 C 28.859375 16.503906 28.921875 16.386719 29.023438 16.292969 C 29.175781 16.101562 29.367188 16.050781 29.59375 16.140625 C 29.820312 16.230469 29.925781 16.398438 29.90625 16.640625 C 29.925781 16.882812 29.820312 17.050781 29.59375 17.140625 C 29.367188 17.230469 29.175781 17.179688 29.023438 16.988281 Z M 90.222656 16.988281 C 90.003906 16.769531 89.992188 16.648438 90.160156 16.335938 C 90.398438 15.890625 91.105469 16.117188 91.105469 16.640625 C 91.121094 16.882812 91.019531 17.050781 90.792969 17.140625 C 90.566406 17.230469 90.375 17.179688 90.222656 16.988281 Z M 90.222656 16.988281 " fill-opacity="1" fill-rule="nonzero"/></g></svg>